<?xml version="1.0" encoding="UTF-8"?>
<svg version="1.1" xmlns="http://www.w3.org/2000/svg" width="360" height="360">
<path d="M0 0 C118.8 0 237.6 0 360 0 C360 118.8 360 237.6 360 360 C241.2 360 122.4 360 0 360 C0 241.2 0 122.4 0 0 Z " fill="#FBDA56" transform="translate(0,0)"/>
<path d="M0 0 C0.90234375 -0.01546875 1.8046875 -0.0309375 2.734375 -0.046875 C6.54901134 -0.02430319 9.21065929 0.04549448 12.55078125 1.96875 C14.67636907 5.68136701 14.79705909 9.29363876 15.1875 13.5 C15.82672658 19.57979824 15.82672658 19.57979824 18.9765625 24.5703125 C21.42695594 25.67667743 23.32517517 26.23550376 26 26.5 C26.97453125 26.59925781 27.9490625 26.69851562 28.953125 26.80078125 C32.84963174 26.4161261 34.44183801 25.03642115 37.4375 22.5625 C40.49998925 20.25944204 43.04055037 18.48221475 46.5625 16.9375 C53.18003957 18.02037011 57.38451354 23.69688082 61.796875 28.42578125 C63.52504154 31.40518526 63.52117809 33.09358002 63 36.5 C61.96949659 38.34544507 60.79062883 39.99847477 59.54003906 41.7019043 C56.35444243 46.08411222 54.07222188 49.73334159 53.84765625 55.2265625 C54.93486114 59.3965345 55.90305612 61.47067498 59 64.5 C64.41272437 66.83603108 70.28225798 67.53725538 76.1081543 68.11206055 C78 68.5 78 68.5 80 70.5 C80.47682157 73.95835879 80.37037157 77.44997512 80.375 80.9375 C80.39949219 81.90494141 80.42398438 82.87238281 80.44921875 83.86914062 C80.45308594 84.79791016 80.45695313 85.72667969 80.4609375 86.68359375 C80.46915527 87.53493896 80.47737305 88.38628418 80.48583984 89.26342773 C80 91.5 80 91.5 78.21923828 93.25 C76.01922256 94.48917277 74.5119939 94.98770168 72.03125 95.31640625 C63.67039834 96.32595472 63.67039834 96.32595472 56.99609375 100.8046875 C55.93467211 103.4445332 55.30913966 105.67420225 55 108.5 C54.89945313 109.31855469 54.79890625 110.13710937 54.6953125 110.98046875 C55.11877188 114.48215207 56.72600841 116.16213333 58.9375 118.875 C64.65937688 126.50757505 64.65937688 126.50757505 64 131.5 C61.99117095 134.52197761 59.57934178 136.96311652 57 139.5 C56.175 140.49 55.35 141.48 54.5 142.5 C51.10050686 145.21959451 49.28710897 144.93317664 45 144.5 C41.54721908 142.62152276 38.48410853 140.42621783 35.28125 138.15234375 C31.16627534 136.08016008 29.41913378 136.3519859 25 137.5 C24.2881958 137.64953125 23.5763916 137.7990625 22.84301758 137.953125 C20.58472539 138.55961014 18.91595424 139.15412857 17 140.5 C15.6647509 143.23451183 15.43255037 145.9286857 15.1875 148.9375 C14.36890067 156.57561183 14.36890067 156.57561183 12.98828125 160.03515625 C11 161.5 11 161.5 2 161.5 C2 184.6 2 207.7 2 231.5 C13.55 231.5 25.1 231.5 37 231.5 C37 212.36 37 193.22 37 173.5 C47.395 168.055 47.395 168.055 58 162.5 C61.61263668 160.55419309 65.21862604 158.60408409 68.8125 156.625 C70.62619887 155.63262385 72.44000539 154.6404444 74.25390625 153.6484375 C77.2608528 152.00141389 80.26723178 150.35336737 83.27294922 148.70410156 C86.59651579 146.88216664 89.92302821 145.06570761 93.25 143.25 C94.29260986 142.67652832 95.33521973 142.10305664 96.40942383 141.51220703 C97.85418091 140.72499268 97.85418091 140.72499268 99.328125 139.921875 C100.1830957 139.45362305 101.03806641 138.98537109 101.91894531 138.50292969 C104 137.5 104 137.5 106 137.5 C106 107.47 106 77.44 106 46.5 C107.32 46.5 108.64 46.5 110 46.5 C110.20859786 58.52173302 110.36847856 70.54303515 110.46630955 82.56620979 C110.51326638 88.14928258 110.57694521 93.73111673 110.67895508 99.31347656 C110.77680053 104.70171124 110.83056897 110.08875537 110.85389519 115.47780991 C110.87051573 117.53286359 110.90297419 119.58785258 110.95157051 121.64239883 C111.31676143 137.72252106 111.31676143 137.72252106 108.13891602 142.01225281 C105.79528151 143.61524304 103.67781562 144.58204808 101 145.5 C99.49348877 146.37120483 99.49348877 146.37120483 97.95654297 147.26000977 C97.06080566 147.73237061 96.16506836 148.20473145 95.2421875 148.69140625 C94.21528809 149.23748535 93.18838867 149.78356445 92.13037109 150.34619141 C91.05609863 150.91257324 89.98182617 151.47895508 88.875 152.0625 C79.01792415 157.30880356 69.25090883 162.68576426 59.56201172 168.23657227 C45.09338765 176.5 45.09338765 176.5 42 176.5 C42 183.1 42 189.7 42 196.5 C53.81556486 190.31955069 65.5650973 184.03886602 77.26171875 177.63671875 C84.04578578 173.9239352 90.84765986 170.24422914 97.65112305 166.56713867 C108.11634809 160.90633083 118.55438544 155.19760794 129 149.5 C129.33 124.75 129.66 100 130 74.5 C131.65 74.17 133.3 73.84 135 73.5 C135.11581961 83.60073063 135.20467755 93.70130346 135.25906086 103.80256271 C135.28516155 108.49296258 135.32056787 113.18290837 135.37719727 117.87304688 C135.43150075 122.3988415 135.46141698 126.92419924 135.47438622 131.45029449 C135.48362915 133.17753224 135.50167872 134.90474591 135.52865028 136.63179779 C135.56492026 139.05030591 135.56994648 141.46700613 135.56762695 143.88574219 C135.58560333 144.60071869 135.60357971 145.31569519 135.62210083 146.05233765 C135.5835604 149.76323058 135.29797132 151.2004927 132.63783264 153.87434387 C129.86141936 155.58540514 127.08411081 157.1997251 124.1953125 158.71484375 C123.06706055 159.31151855 121.93880859 159.90819336 120.77636719 160.52294922 C120.18190796 160.83455994 119.58744873 161.14617065 118.97497559 161.46722412 C115.79715931 163.13392637 112.62885771 164.81848857 109.4609375 166.50390625 C108.82160278 166.84381592 108.18226807 167.18372559 107.52355957 167.53393555 C101.87426436 170.54713403 96.30461307 173.69083976 90.75 176.875 C81.21726529 182.32178481 71.56758709 187.53261547 61.875 192.6875 C61.169198 193.06388611 60.463396 193.44027222 59.73620605 193.82806396 C57.7189967 194.90280472 55.69976441 195.97362931 53.6796875 197.04296875 C52.77804367 197.52332329 52.77804367 197.52332329 51.85818481 198.01338196 C48.60520529 199.72752772 45.43255859 201.12697657 42 202.5 C42 212.07 42 221.64 42 231.5 C53.22 231.5 64.44 231.5 76 231.5 C76.66 229.85 77.32 228.2 78 226.5 C84.61272165 218.64644729 94.82050953 212.95421292 105 211.5 C117.91002503 210.50566726 129.26435368 212.56619001 139.7109375 220.51171875 C145.92377009 225.90818938 149.8329932 230.89164187 153 238.5 C151.96593018 238.51981934 150.93186035 238.53963867 149.86645508 238.56005859 C146.01774381 238.63632227 142.1694004 238.72500714 138.32104492 238.81738281 C136.65770752 238.85558696 134.99428992 238.89045463 133.33081055 238.921875 C130.9350932 238.96771234 128.53992391 239.02567467 126.14453125 239.0859375 C125.03486748 239.10326431 125.03486748 239.10326431 123.90278625 239.12094116 C119.8636632 239.23553569 116.58994604 239.58815552 113 241.5 C108.84928041 246.21931132 108.3734996 250.00177272 108.5 256 C108.48453125 256.73347656 108.4690625 257.46695312 108.453125 258.22265625 C108.49021427 263.40588173 109.59373105 266.40260402 113 270.5 C116.75663168 273.00442112 119.81008125 272.84885437 124.16796875 272.9140625 C124.96278152 272.93342865 125.7575943 272.9527948 126.57649231 272.9727478 C129.11338595 273.03249442 131.65032509 273.07890883 134.1875 273.125 C135.90822284 273.16318435 137.62892665 273.20223635 139.34960938 273.2421875 C143.56625165 273.33819179 147.7829834 273.42224076 152 273.5 C148.85289657 283.60408697 141.12227293 290.45434721 132 295.5 C122.2780725 300.45857347 110.37781802 301.05556404 99.7578125 298.81640625 C89.55573299 295.3338267 81.33394662 289.23385925 75 280.5 C74.30871336 278.84339353 73.63859085 277.1776245 73 275.5 C54.0674417 275.42034726 35.13547016 275.3920597 16.20276451 275.42484188 C7.41180513 275.43886726 -1.37854997 275.43611438 -10.16943359 275.39379883 C-17.83207682 275.35695678 -25.49398316 275.35166074 -33.15665758 275.38417059 C-37.2139411 275.40028438 -41.2698426 275.40065231 -45.32701492 275.36323357 C-49.14774409 275.32849416 -52.96608393 275.33600407 -56.78674316 275.37562943 C-58.18715614 275.38276062 -59.5877456 275.37458243 -60.987957 275.34977531 C-68.64174707 275.0018606 -68.64174707 275.0018606 -75.0673027 278.44607735 C-76.67719448 280.77479023 -76.67719448 280.77479023 -77.81641197 283.20418644 C-82.04449421 291.40542564 -91.62648806 295.30908311 -99.73046875 298.61328125 C-110.22249609 301.45878926 -123.47256292 300.79635478 -133 295.5 C-141.68128338 290.39689428 -149.72604357 283.3218693 -153 273.5 C-151.97116699 273.48541748 -150.94233398 273.47083496 -149.88232422 273.45581055 C-146.04653053 273.39761343 -142.21131078 273.32038297 -138.37597656 273.23754883 C-136.71949616 273.20439982 -135.06290554 273.17633691 -133.40625 273.15356445 C-131.01775366 273.11983268 -128.63025829 273.06751041 -126.2421875 273.01171875 C-125.14026566 273.00213387 -125.14026566 273.00213387 -124.01608276 272.99235535 C-119.29851252 272.8590069 -116.01757865 271.97670842 -112 269.5 C-108.45118944 265.35096778 -108.51271137 261.2722013 -108.5625 256.0625 C-108.54251953 255.32451172 -108.52253906 254.58652344 -108.50195312 253.82617188 C-108.50656526 248.63752261 -109.45243008 245.52057924 -113 241.5 C-117.24632086 239.23934428 -121.43684367 239.15944555 -126.14453125 239.0859375 C-126.91431808 239.06657135 -127.68410492 239.0472052 -128.47721863 239.0272522 C-130.92220171 238.96774377 -133.36723262 238.92118705 -135.8125 238.875 C-137.47593134 238.83679369 -139.13934347 238.79774043 -140.80273438 238.7578125 C-144.86833241 238.66206617 -148.93402301 238.57792991 -153 238.5 C-148.83229459 227.79325164 -140.6490583 219.43312219 -130.25 214.5625 C-119.01102402 209.71528083 -106.39405343 210.36809052 -95 214.5 C-87.46001055 217.95952457 -81.28526496 223.11682976 -76 229.5 C-76 230.16 -76 230.82 -76 231.5 C-64.78 231.5 -53.56 231.5 -42 231.5 C-42 221.93 -42 212.36 -42 202.5 C-43.98 201.84 -45.96 201.18 -48 200.5 C-49.62672333 199.71719367 -51.23299898 198.89052225 -52.81640625 198.0234375 C-54.18708252 197.27719116 -54.18708252 197.27719116 -55.58544922 196.51586914 C-56.56787598 195.97438232 -57.55030273 195.43289551 -58.5625 194.875 C-59.60680176 194.30450928 -60.65110352 193.73401855 -61.72705078 193.14624023 C-71.17851943 187.97514146 -80.60431598 182.75674177 -90.03027344 177.53930664 C-96.11527546 174.17413995 -102.2120454 170.83356669 -108.33984375 167.546875 C-108.93122131 167.22959946 -109.52259888 166.91232391 -110.13189697 166.58543396 C-112.92773439 165.08683433 -115.7258852 163.59274586 -118.52685547 162.10375977 C-119.52475098 161.57065186 -120.52264648 161.03754395 -121.55078125 160.48828125 C-122.84495972 159.80052612 -122.84495972 159.80052612 -124.1652832 159.09887695 C-125.10073975 158.57124756 -126.03619629 158.04361816 -127 157.5 C-127.69012177 157.27757126 -128.38024353 157.05514252 -129.09127808 156.82597351 C-131.82095534 155.70686451 -133.1700545 154.841806 -135 152.5 C-136.17143162 146.58729623 -135.9297874 140.73356159 -135.78125 134.73046875 C-135.76632253 132.96644151 -135.75493789 131.20238102 -135.74694824 129.43830872 C-135.71645301 124.80302798 -135.6379154 120.16976403 -135.54931641 115.53527832 C-135.46736678 110.80309331 -135.43091748 106.07058122 -135.390625 101.33789062 C-135.30491633 92.0577093 -135.168443 82.77902257 -135 73.5 C-133.68 73.5 -132.36 73.5 -131 73.5 C-131 98.58 -131 123.66 -131 149.5 C-129.02 150.16 -127.04 150.82 -125 151.5 C-123.48374153 152.23321419 -121.98747766 153.00941105 -120.515625 153.828125 C-119.67652588 154.29081787 -118.83742676 154.75351074 -117.97290039 155.23022461 C-117.07434326 155.73175049 -116.17578613 156.23327637 -115.25 156.75 C-113.27519901 157.84067601 -111.2999184 158.93048395 -109.32421875 160.01953125 C-108.29087402 160.59010254 -107.2575293 161.16067383 -106.19287109 161.74853516 C-100.83812267 164.68590824 -95.44760805 167.55629825 -90.0625 170.4375 C-80.54209031 175.54136357 -71.10279029 180.7717394 -61.73461914 186.15014648 C-55.9151396 189.47763848 -50.02007112 192.54951551 -44 195.5 C-43.67 189.23 -43.34 182.96 -43 176.5 C-44.65 175.84 -46.3 175.18 -48 174.5 C-49.94760582 173.51830927 -51.88154254 172.50925374 -53.8046875 171.48046875 C-54.93471191 170.87638184 -56.06473633 170.27229492 -57.22900391 169.64990234 C-58.44444562 168.99597206 -59.65977518 168.34183326 -60.875 167.6875 C-61.4917157 167.35663391 -62.1084314 167.02576782 -62.74383545 166.68487549 C-72.36021135 161.52445241 -81.90017623 156.23994464 -91.36279297 150.80151367 C-96.51545814 147.85073933 -101.70716933 145.11461591 -107.07958984 142.58251953 C-109 141.5 -109 141.5 -110 139.5 C-110.09341082 136.57066233 -110.12573748 133.66525291 -110.11352539 130.73583984 C-110.11367142 129.82846573 -110.11381744 128.92109161 -110.1139679 127.98622131 C-110.11326951 124.97776932 -110.10548054 121.96937872 -110.09765625 118.9609375 C-110.09579181 116.87871332 -110.09436803 114.79648869 -110.09336853 112.71426392 C-110.08954541 107.22663162 -110.07971686 101.73902567 -110.06866455 96.25140381 C-110.05844602 90.65458533 -110.05386996 85.05776261 -110.04882812 79.4609375 C-110.03809443 68.47394674 -110.02102045 57.48697556 -110 46.5 C-108.68 46.5 -107.36 46.5 -106 46.5 C-106 76.53 -106 106.56 -106 137.5 C-103.03 138.49 -103.03 138.49 -100 139.5 C-98.30291536 140.31787014 -96.62653785 141.17998719 -94.97265625 142.08203125 C-94.02704834 142.59548096 -93.08144043 143.10893066 -92.10717773 143.63793945 C-91.10243408 144.19054443 -90.09769043 144.74314941 -89.0625 145.3125 C-88.01070557 145.88637451 -86.95891113 146.46024902 -85.87524414 147.05151367 C-77.63125544 151.56483465 -69.43723303 156.16582625 -61.27954102 160.83325195 C-53.5928727 165.21838873 -45.82125465 169.32866419 -38 173.5 C-38 192.64 -38 211.78 -38 231.5 C-26.12 231.5 -14.24 231.5 -2 231.5 C-2 208.4 -2 185.3 -2 161.5 C-4.97 161.5 -7.94 161.5 -11 161.5 C-14.88787662 158.61319341 -14.99994591 153.28109416 -15.6875 148.75 C-15.81705078 147.95722656 -15.94660156 147.16445312 -16.08007812 146.34765625 C-16.39685595 144.40005926 -16.69980217 142.45022139 -17 140.5 C-17.59167969 140.30664062 -18.18335938 140.11328125 -18.79296875 139.9140625 C-19.58316406 139.65367187 -20.37335938 139.39328125 -21.1875 139.125 C-21.96480469 138.86976563 -22.74210938 138.61453125 -23.54296875 138.3515625 C-26 137.5 -26 137.5 -28.37109375 136.125 C-31.21129621 135.14246509 -31.21129621 135.14246509 -34.3046875 137.2734375 C-35.50740765 138.12304114 -36.69727789 138.99106974 -37.875 139.875 C-41.44993363 142.54637898 -44.08511389 144.33558276 -48.54296875 145.13671875 C-53.19664641 144.27960072 -55.24990258 142.29307621 -58.4375 138.9375 C-58.97826172 138.42380859 -59.51902344 137.91011719 -60.07617188 137.38085938 C-62.84620528 134.56179883 -63.91207803 132.985199 -64.6328125 129.0078125 C-63.74483364 124.08555932 -61.16915736 121.06700501 -58.11132812 117.30664062 C-56.0589227 114.62073684 -54.99361637 113.02700426 -55.03515625 109.59765625 C-55.35355469 108.57542969 -55.67195313 107.55320312 -56 106.5 C-56.144375 105.81510498 -56.28875 105.13020996 -56.4375 104.42456055 C-57.03947768 102.13003959 -57.64351347 100.45102695 -59 98.5 C-61.87030572 97.04344936 -64.76694051 96.66104487 -67.9375 96.25 C-76.11055987 95.02955897 -76.11055987 95.02955897 -79.5390625 92.98828125 C-81.82720248 89.09110165 -81.54059305 85.37050098 -81.4375 80.9375 C-81.44458984 80.07447266 -81.45167969 79.21144531 -81.45898438 78.32226562 C-81.39515656 72.00331146 -81.39515656 72.00331146 -79.65576172 69.7878418 C-77.19366899 67.87284045 -74.71969439 67.51151601 -71.6875 66.875 C-70.57761719 66.63523437 -69.46773438 66.39546875 -68.32421875 66.1484375 C-65 65.5 -65 65.5 -61.73046875 65.2109375 C-58.85389546 64.77882998 -58.85389546 64.77882998 -57.5390625 62.390625 C-57.23742187 61.51921875 -56.93578125 60.6478125 -56.625 59.75 C-56.30789062 58.88890625 -55.99078125 58.0278125 -55.6640625 57.140625 C-54.56240448 52.7599143 -54.36053379 50.58228563 -56.71484375 46.59765625 C-57.44832031 45.59605469 -58.18179688 44.59445313 -58.9375 43.5625 C-61.8770372 39.54461405 -63.90334065 36.57461599 -64 31.5 C-62.77734375 29.375 -62.77734375 29.375 -60.9375 27.5 C-60.2878125 26.8296875 -59.638125 26.159375 -58.96875 25.46875 C-57.99421875 24.49421875 -57.99421875 24.49421875 -57 23.5 C-56.4740625 22.8915625 -55.948125 22.283125 -55.40625 21.65625 C-53.13263023 19.09238089 -51.65783451 17.60440351 -48.21875 17.05859375 C-43.47426589 17.70923295 -40.53214369 20.4492454 -36.94335938 23.38867188 C-33.83460189 25.75849301 -32.32701367 26.5140651 -28.3671875 26.34375 C-27.25601563 26.0653125 -26.14484375 25.786875 -25 25.5 C-24.19691406 25.32339844 -23.39382812 25.14679687 -22.56640625 24.96484375 C-21.57447266 24.70380859 -21.57447266 24.70380859 -20.5625 24.4375 C-19.386875 24.128125 -18.21125 23.81875 -17 23.5 C-16.46274189 20.40726203 -15.97938892 17.32817296 -15.60546875 14.2109375 C-15.46753906 13.11007813 -15.32960937 12.00921875 -15.1875 10.875 C-14.99220703 9.21597656 -14.99220703 9.21597656 -14.79296875 7.5234375 C-12.67595774 -0.54831877 -7.21700037 -0.12372001 0 0 Z " fill="#050505" transform="translate(185,31.5)"/>
<path d="M0 0 C1.48831242 0.00667405 2.97660807 0.01863442 4.46484375 0.03515625 C5.22345703 0.03966797 5.98207031 0.04417969 6.76367188 0.04882812 C8.64326246 0.06064945 10.52281274 0.07858547 12.40234375 0.09765625 C14.50673623 3.36249561 14.66146213 6.43865392 14.98486328 10.2421875 C15.36421063 14.02438532 15.75519512 17.63486922 17.40234375 21.09765625 C21.49360783 24.03645158 25.51968418 25.07539144 30.40234375 26.09765625 C30.73234375 26.42765625 31.06234375 26.75765625 31.40234375 27.09765625 C33.99718623 27.56119165 35.75348001 27.47267004 38.05908203 26.14013672 C40.53700685 24.35224944 42.92513679 22.46339581 45.31835938 20.56445312 C49.94453985 17.03855341 49.94453985 17.03855341 52.47119141 17.36474609 C55.10027959 18.36253658 56.69116092 19.84286468 58.71484375 21.78515625 C59.43285156 22.44902344 60.15085938 23.11289062 60.890625 23.796875 C62.40234375 26.09765625 62.40234375 26.09765625 62.390625 28.9921875 C60.88465511 33.72438537 57.97924732 37.16502313 55.01953125 41.09765625 C53.03301938 44.78277972 53.32441225 46.12310315 54.40234375 50.09765625 C54.56347656 51.18304688 54.72460938 52.2684375 54.890625 53.38671875 C55.88431409 57.40856937 56.7639921 59.86299423 59.40234375 63.09765625 C65.07675484 65.61255321 71.40618691 66.21433603 77.53222656 66.82324219 C79.40234375 67.09765625 79.40234375 67.09765625 80.40234375 68.09765625 C80.47547942 70.62815027 80.49481902 73.13070462 80.46484375 75.66015625 C80.46033203 76.37107422 80.45582031 77.08199219 80.45117188 77.81445312 C80.43935239 79.57555638 80.42141638 81.33661661 80.40234375 83.09765625 C76.58668844 84.66880844 73.26786892 85.98842531 69.15234375 86.5078125 C65.54126583 86.99612872 62.69919497 87.52585069 59.40234375 89.09765625 C56.68460226 93.18260511 55.45460452 97.33449714 54.40234375 102.09765625 C54.098125 103.07863281 53.79390625 104.05960937 53.48046875 105.0703125 C53.36407089 109.58072952 55.63257101 111.83332909 58.40234375 115.22265625 C60.21717115 117.47208706 61.81050337 119.6689292 63.40234375 122.09765625 C62.92413021 125.82860335 61.2936619 127.72327334 58.71484375 130.41015625 C58.05097656 131.12816406 57.38710937 131.84617188 56.703125 132.5859375 C54.40234375 134.09765625 54.40234375 134.09765625 51.54296875 134.0859375 C47.22393966 132.72684004 43.86034351 130.3858245 40.16992188 127.8046875 C37.64203634 126.13142519 35.99821844 125.06580131 32.91796875 125.23046875 C32.0878125 125.51664062 31.25765625 125.8028125 30.40234375 126.09765625 C29.32597656 126.38640625 28.24960938 126.67515625 27.140625 126.97265625 C20.82541669 128.76903786 20.82541669 128.76903786 16.18359375 133.0078125 C15.6628551 135.39887079 15.5151226 137.65290173 15.40234375 140.09765625 C15.04687218 142.28841439 14.671417 144.47601168 14.27734375 146.66015625 C13.98859375 148.45453125 13.69984375 150.24890625 13.40234375 152.09765625 C7.46234375 152.09765625 1.52234375 152.09765625 -4.59765625 152.09765625 C-4.80519531 150.68871094 -5.01273437 149.27976563 -5.2265625 147.828125 C-5.53611468 145.98019231 -5.84740351 144.13254995 -6.16015625 142.28515625 C-6.29228516 141.35638672 -6.42441406 140.42761719 -6.56054688 139.47070312 C-7.0267909 136.83499709 -7.51269264 134.54646097 -8.59765625 132.09765625 C-11.89761608 129.96142809 -11.89761608 129.96142809 -15.59765625 129.09765625 C-17.62072949 128.01961722 -19.61629854 126.90855818 -21.60546875 125.76953125 C-24.38493593 124.83214232 -25.80597308 125.18892654 -28.59765625 126.09765625 C-31.40553515 127.77265332 -34.09714732 129.52856769 -36.78125 131.390625 C-39.36386724 133.08603726 -41.1017223 134.10207109 -44.23046875 134.07421875 C-47.07008699 132.90275908 -48.78987639 131.50609284 -50.97265625 129.34765625 C-51.68164062 128.6721875 -52.390625 127.99671875 -53.12109375 127.30078125 C-54.59765625 125.09765625 -54.59765625 125.09765625 -54.61328125 122.7421875 C-53.02472791 118.60583898 -50.33457692 115.30849046 -47.66015625 111.82617188 C-45.29404189 108.77983146 -45.29404189 108.77983146 -44.6640625 105.109375 C-45.12619141 104.11357422 -45.12619141 104.11357422 -45.59765625 103.09765625 C-46.18740234 101.53144531 -46.18740234 101.53144531 -46.7890625 99.93359375 C-47.70526173 97.62090851 -48.62193061 95.30840928 -49.5390625 92.99609375 C-50.59765625 90.09765625 -50.59765625 90.09765625 -50.59765625 88.09765625 C-51.85578125 87.99453125 -53.11390625 87.89140625 -54.41015625 87.78515625 C-68.45033482 86.24497768 -68.45033482 86.24497768 -71.59765625 83.09765625 C-71.67079192 80.56716223 -71.69013152 78.06460788 -71.66015625 75.53515625 C-71.65564453 74.82423828 -71.65113281 74.11332031 -71.64648438 73.38085938 C-71.63466489 71.61975612 -71.61672888 69.85869589 -71.59765625 68.09765625 C-67.93269598 66.82799025 -64.33902958 65.73222525 -60.53515625 64.97265625 C-59.71917969 64.80507812 -58.90320313 64.6375 -58.0625 64.46484375 C-55.53701913 64.08862315 -53.14706117 64.03403474 -50.59765625 64.09765625 C-50.41589844 63.44539063 -50.23414063 62.793125 -50.046875 62.12109375 C-48.89470043 58.1150714 -47.80220935 54.48484605 -45.84765625 50.78515625 C-44.31083948 47.4810002 -44.545457 46.54434631 -45.59765625 43.09765625 C-47.27265332 40.28977735 -49.02856769 37.59816518 -50.890625 34.9140625 C-52.58524209 32.33265654 -53.6013224 30.59185307 -53.578125 27.46484375 C-52.39553146 24.60965775 -50.97038075 22.90382653 -48.78515625 20.72265625 C-48.09808594 20.01367188 -47.41101563 19.3046875 -46.703125 18.57421875 C-44.59765625 17.09765625 -44.59765625 17.09765625 -42.734375 17.08203125 C-38.99684433 18.85855406 -35.79393226 21.48913116 -32.55078125 24.03515625 C-29.69224641 26.14215141 -28.06887789 27.11297095 -24.47265625 26.99609375 C-21.85360205 26.17763931 -19.44375983 25.28518306 -16.97265625 24.09765625 C-14.18109724 22.76554388 -11.60420115 21.80896653 -8.59765625 21.09765625 C-8.42375366 20.19672241 -8.42375366 20.19672241 -8.24633789 19.27758789 C-7.72159154 16.57098766 -7.19095478 13.86557577 -6.66015625 11.16015625 C-6.47775391 10.21462891 -6.29535156 9.26910156 -6.10742188 8.29492188 C-5.93017578 7.39580078 -5.75292969 6.49667969 -5.5703125 5.5703125 C-5.32680054 4.32133179 -5.32680054 4.32133179 -5.07836914 3.04711914 C-4.23019492 -0.39253101 -3.81855669 0.10365246 0 0 Z " fill="#20395D" transform="translate(180.59765625,36.90234375)"/>
<path d="M0 0 C9.10785825 6.53994821 16.99515393 15.68932676 19 27 C20.00493921 39.68735751 18.39490866 49.61913453 11 60 C10.4225 60.86625 9.845 61.7325 9.25 62.625 C1.89891465 70.38447898 -7.39524112 74.60188706 -17.953125 75.23828125 C-30.56205224 75.56491473 -38.88504393 73.5577057 -48.7421875 65.19921875 C-52.21943592 61.81221034 -54.69855851 58.25766676 -57 54 C-57.4125 53.29875 -57.825 52.5975 -58.25 51.875 C-62.59295061 43.18909878 -62.59985491 31.30146933 -60.234375 21.984375 C-59.31074001 19.82922669 -58.28923731 17.95407049 -57 16 C-56.1646875 14.515 -56.1646875 14.515 -55.3125 13 C-41.73139177 -4.61873501 -20.24106798 -11.54709862 0 0 Z " fill="#213C61" transform="translate(206,78)"/>
<path d="M0 0 C47.52 0 95.04 0 144 0 C143 5 143 5 141.9375 8.0625 C139.53204266 16.32004012 141.16794973 25.67949726 142 34 C95.47 34 48.94 34 1 34 C1.66 30.7 2.32 27.4 3 24 C3.47340069 17.37239035 2.44005823 11.99354199 0.65625 5.6015625 C0 3 0 3 0 0 Z " fill="#1F395D" transform="translate(113,268)"/>
<path d="M0 0 C1.92839904 1.58605404 3.39148069 3.06977683 5 5 C5 5.66 5 6.32 5 7 C4.25951416 7.00410889 3.51902832 7.00821777 2.75610352 7.01245117 C-0.64254122 7.04561774 -4.03944793 7.11628881 -7.4375 7.1875 C-8.60216797 7.19330078 -9.76683594 7.19910156 -10.96679688 7.20507812 C-19.2541454 7.41517992 -25.6325141 8.73092043 -31.70117188 14.6628418 C-36.2811759 20.00262053 -35.73676901 27.34160353 -35.41796875 33.984375 C-34.88643352 40.44617584 -32.78243086 44.60418066 -28 48.9375 C-23.61165669 51.95448602 -20.1910902 52.13559985 -14.921875 52.31640625 C-13.76171875 52.35830078 -12.6015625 52.40019531 -11.40625 52.44335938 C-9.59640625 52.50233398 -9.59640625 52.50233398 -7.75 52.5625 C-6.52796875 52.60568359 -5.3059375 52.64886719 -4.046875 52.69335938 C-1.0313608 52.79937355 1.98423448 52.90143936 5 53 C1.36314463 60.62871831 -5.03685891 64.47013744 -12.80078125 67.2734375 C-13.52652344 67.51320313 -14.25226563 67.75296875 -15 68 C-15.99 68.33 -16.98 68.66 -18 69 C-29.60203269 69.73127964 -39.84096013 69.29312151 -49.125 61.65625 C-49.74375 61.1096875 -50.3625 60.563125 -51 60 C-51.61875 59.4740625 -52.2375 58.948125 -52.875 58.40625 C-60.52562125 51.41516506 -64.25725187 42.18603261 -65.18359375 31.9765625 C-65.55712979 20.85837221 -61.36462769 10.56550367 -54 2.25 C-38.08361906 -12.52439845 -17.04156782 -12.00450264 0 0 Z " fill="#894898" transform="translate(323,257)"/>
<path d="M0 0 C7.5332488 5.59286653 13.65587623 14.35810066 15.3203125 23.72265625 C16.2207266 36.96317173 14.81255265 47.99478487 5.828125 58.4609375 C-1.05290111 65.86517527 -9.37288561 70.16976638 -19.51171875 71.05859375 C-32.02404344 71.18138398 -41.03632773 68.77549515 -50.4921875 60.16015625 C-52.6796875 57.72265625 -52.6796875 57.72265625 -53.6796875 54.72265625 C-52.90367188 54.71854736 -52.12765625 54.71443848 -51.328125 54.71020508 C-47.77789626 54.67710703 -44.22934656 54.60644189 -40.6796875 54.53515625 C-39.45894531 54.52935547 -38.23820312 54.52355469 -36.98046875 54.51757812 C-29.70086797 54.34050675 -24.19495205 53.77523988 -18.6796875 48.72265625 C-12.82409377 41.2154848 -13.16663219 33.83180814 -13.6796875 24.72265625 C-14.64470205 19.43720959 -17.76014545 16.32227462 -21.765625 12.984375 C-25.92936514 10.23970548 -29.69523813 9.46063931 -34.63671875 9.30859375 C-35.74853516 9.26992188 -36.86035156 9.23125 -38.00585938 9.19140625 C-39.15634766 9.16046875 -40.30683594 9.12953125 -41.4921875 9.09765625 C-42.66201172 9.05898438 -43.83183594 9.0203125 -45.03710938 8.98046875 C-47.91781314 8.88640495 -50.79851404 8.80075748 -53.6796875 8.72265625 C-49.70496385 0.46078063 -42.01872017 -3.19017974 -33.6796875 -6.27734375 C-21.53529126 -9.28039041 -10.39665293 -6.63234756 0 0 Z " fill="#894898" transform="translate(95.6796875,255.27734375)"/>
<path d="M0 0 C4.99268902 1.47931526 4.99268902 1.47931526 6.375 4 C6.95353895 8.46967992 6.91845625 11.18481562 4.375 15 C4.19042684 17.86983044 4.12283218 20.64119262 4.14794922 23.51049805 C4.14765717 24.37900391 4.14736511 25.24750977 4.14706421 26.14233398 C4.14845853 29.01556356 4.16402456 31.88853442 4.1796875 34.76171875 C4.18341727 36.75283161 4.18626441 38.7439463 4.18826294 40.73506165 C4.19590225 45.97776347 4.21555334 51.22035462 4.2376709 56.4630127 C4.25812288 61.81191511 4.26726327 67.16083539 4.27734375 72.50976562 C4.29879892 83.00655906 4.3329385 93.50327033 4.375 104 C4.91892049 104.2853168 5.46284098 104.5706336 6.0232439 104.86459637 C8.51500668 106.17222403 11.00616436 107.48100045 13.49731445 108.78979492 C14.35289192 109.23856743 15.20846939 109.68733994 16.08997345 110.14971161 C22.31589193 113.42213347 28.46543272 116.80549207 34.5625 120.3125 C43.94197657 125.66526188 53.40429051 130.84885598 62.92260742 135.95043945 C63.88400635 136.46695068 64.84540527 136.98346191 65.8359375 137.515625 C66.68978027 137.97227539 67.54362305 138.42892578 68.42333984 138.89941406 C70.375 140 70.375 140 71.375 141 C71.46876053 142.81055025 71.4924411 144.62477201 71.48852539 146.43774414 C71.48841209 148.17943626 71.48841209 148.17943626 71.48829651 149.95631409 C71.48313522 151.219832 71.47797394 152.48334991 71.47265625 153.78515625 C71.4712413 155.07111191 71.46982635 156.35706757 71.46836853 157.68199158 C71.46454418 161.10643443 71.45471462 164.53083509 71.44366455 167.95526123 C71.43344864 171.44738189 71.42887053 174.93950934 71.42382812 178.43164062 C71.41309227 185.28777778 71.39601684 192.14388687 71.375 199 C71.045 199 70.715 199 70.375 199 C70.375 180.19 70.375 161.38 70.375 142 C68.725 141.67 67.075 141.34 65.375 141 C63.20385742 139.96289062 63.20385742 139.96289062 60.98046875 138.65625 C60.12275879 138.15996094 59.26504883 137.66367188 58.38134766 137.15234375 C57.45112793 136.60707031 56.5209082 136.06179687 55.5625 135.5 C44.30322563 129.01016386 32.8726185 122.88881116 21.37963867 116.82617188 C20.71718643 116.47647339 20.05473419 116.1267749 19.37220764 115.76647949 C17.57198492 114.81682248 15.77065305 113.86926886 13.96923828 112.921875 C9.74487482 110.66306579 5.56252046 108.32640025 1.375 106 C1.375 75.97 1.375 45.94 1.375 15 C0.055 15 -1.265 15 -2.625 15 C-2.295 46.35 -1.965 77.7 -1.625 110 C1.345 110.99 1.345 110.99 4.375 112 C6.27697467 112.92528498 8.15704116 113.89663322 10.015625 114.90625 C11.0773291 115.48028564 12.1390332 116.05432129 13.23291016 116.64575195 C14.3522998 117.25765381 15.47168945 117.86955566 16.625 118.5 C17.78435059 119.1293042 18.94370117 119.7586084 20.13818359 120.40698242 C29.5864773 125.539773 38.99926758 130.73593502 48.375 136 C49.51775391 136.64122803 49.51775391 136.64122803 50.68359375 137.29541016 C55.25010211 139.85884736 59.81292715 142.42864985 64.375 145 C64.375 151.6 64.375 158.2 64.375 165 C42.01148189 154.04187613 20.21903477 141.94997196 -1.625 130 C-8.885 126.04 -16.145 122.08 -23.625 118 C-23.625 92.92 -23.625 67.84 -23.625 42 C-24.945 42 -26.265 42 -27.625 42 C-27.295 68.07 -26.965 94.14 -26.625 121 C-12.765 128.425 -12.765 128.425 1.375 136 C12.625 142.375 12.625 142.375 18.14453125 145.5234375 C27.80230873 150.96664995 37.6428856 156.08007793 47.46224976 161.22413635 C49.3461184 162.22026972 51.21703022 163.23784101 53.08740234 164.2590332 C56.2307925 165.99219315 56.2307925 165.99219315 59.07275391 167.10620117 C61.47441708 168.19095149 62.79798727 168.88116028 64.375 171 C65.33672124 175.80821575 65.12774863 180.43493743 64.875 185.3125 C64.83890625 186.62541016 64.8028125 187.93832031 64.765625 189.29101562 C64.67139122 192.53030187 64.53994088 195.76366962 64.375 199 C64.045 199 63.715 199 63.375 199 C63.47039062 198.28046143 63.56578125 197.56092285 63.6640625 196.81958008 C64.54436065 188.82716378 65.17673214 180.66720263 62.375 173 C57.02776492 166.95934516 48.97954257 164.29626148 41.65087891 161.36816406 C36.67463047 159.28984418 32.05982293 156.65705094 27.375 154 C25.56569617 153.00695786 23.75447732 152.01739722 21.94140625 151.03125 C21.03406738 150.53625 20.12672852 150.04125 19.19189453 149.53125 C16.26589278 147.94068985 13.33489662 146.3596967 10.40234375 144.78125 C0.39099654 139.39101863 -9.59598618 133.9605177 -19.5 128.375 C-20.39211182 127.87806641 -21.28422363 127.38113281 -22.20336914 126.86914062 C-23.0205542 126.40443359 -23.83773926 125.93972656 -24.6796875 125.4609375 C-25.39624512 125.05665527 -26.11280273 124.65237305 -26.85107422 124.23583984 C-28.625 123 -28.625 123 -30.625 120 C-30.82727937 117.47984688 -30.91557689 115.06781095 -30.91210938 112.546875 C-30.92235893 111.41227844 -30.92235893 111.41227844 -30.93281555 110.25476074 C-30.94640171 108.61294527 -30.95545619 106.97108749 -30.96052551 105.32922363 C-30.96880731 102.73202731 -30.98930463 100.13518382 -31.01306152 97.53808594 C-31.0695063 91.08845431 -31.10469525 84.63873702 -31.14068604 78.18896484 C-31.17190795 72.73854463 -31.21108422 67.28829527 -31.26094055 61.8380127 C-31.28103752 59.27707657 -31.28933402 56.71627206 -31.29724121 54.15527344 C-31.31021148 52.58788572 -31.32373147 51.02050243 -31.33789062 49.453125 C-31.33690872 48.73926636 -31.33592682 48.02540771 -31.33491516 47.28991699 C-31.38097327 43.63733814 -31.54001508 42.12747738 -33.625 39 C-34.24203539 34.94519599 -33.94538101 33.45630023 -31.5625 30.0625 C-28.625 28 -28.625 28 -25.0625 27.9375 C-21.33274573 29.09033314 -19.71086439 29.69738138 -17.625 33 C-17.79905925 36.36514555 -18.11321498 38.97642995 -19.625 42 C-19.74691221 44.37924562 -19.81058294 46.73123317 -19.83032227 49.11181641 C-19.84517166 50.20953117 -19.84517166 50.20953117 -19.86032104 51.329422 C-19.89196199 53.75343568 -19.91670366 56.17746898 -19.94140625 58.6015625 C-19.96197354 60.28022782 -19.98296995 61.95888793 -20.00437927 63.63754272 C-20.05962318 68.05981231 -20.10902221 72.48212881 -20.15722656 76.90447998 C-20.20742467 81.41552922 -20.26311955 85.92651018 -20.31835938 90.4375 C-20.4259693 99.29160836 -20.52740797 108.14577596 -20.625 117 C-19.86476532 117.29738571 -19.10453064 117.59477142 -18.32125854 117.90116882 C-15.08410338 119.2204366 -12.02652161 120.81550754 -8.9453125 122.45703125 C-7.9843013 122.96574013 -7.9843013 122.96574013 -7.00387573 123.48472595 C-4.91756755 124.59084836 -2.83362009 125.70132321 -0.75 126.8125 C0.32411133 127.38381653 0.32411133 127.38381653 1.41992188 127.9666748 C11.38803274 133.27140374 21.27748561 138.69391168 31.08178711 144.296875 C41.74508302 150.38303324 52.55855441 156.19167359 63.375 162 C63.87996334 156.90946874 64.25040712 151.83991536 62.375 147 C58.10854948 142.8748939 53.12538769 140.75999096 47.75 138.375 C46.28658725 137.67330747 44.82622028 136.96522906 43.36889648 136.25097656 C40.43891037 134.81887154 37.49891751 133.4117193 34.54931641 132.02050781 C28.67975503 129.21947309 23.06366985 126.01024476 17.4375 122.75 C15.67883321 121.74400844 13.91974529 120.73875258 12.16015625 119.734375 C10.96350342 119.04504883 10.96350342 119.04504883 9.74267578 118.34179688 C8.13775187 117.43226277 6.52093078 116.54346546 4.89404297 115.67382812 C4.10271973 115.25037109 3.31139648 114.82691406 2.49609375 114.390625 C1.44893188 113.84196777 1.44893188 113.84196777 0.38061523 113.28222656 C-2.17226709 111.65012212 -3.75666117 110.43545038 -5.625 108 C-6.22646582 104.98780432 -6.16822084 102.01197375 -6.13916016 98.94873047 C-6.14984779 97.57741974 -6.14984779 97.57741974 -6.16075134 96.17840576 C-6.18004513 93.15778041 -6.17175159 90.13785408 -6.1640625 87.1171875 C-6.17396473 85.02018201 -6.18590415 82.92318523 -6.19979858 80.82620239 C-6.23219184 75.3064606 -6.24255623 69.78691734 -6.24664307 64.26708984 C-6.25539418 55.4243301 -6.29075655 46.58173358 -6.3388176 37.73910904 C-6.35145057 34.6446049 -6.35064076 31.55030486 -6.34854126 28.45578003 C-6.35511854 26.56801188 -6.36212419 24.68024516 -6.36962891 22.79248047 C-6.36550491 21.92698578 -6.36138092 21.06149109 -6.35713196 20.16976929 C-6.18153833 15.60808245 -6.18153833 15.60808245 -8.625 12 C-9.20117676 7.63751885 -9.08200903 5.66474041 -6.5625 2 C-3.625 0 -3.625 0 0 0 Z " fill="#E6E3DA" transform="translate(77.625,63)"/>
<path d="M0 0 C3.39470755 1.15564512 4.87501175 2.06492057 6.9375 5 C7.375 8 7.375 8 6.9375 11 C6.44141235 11.53551987 5.94532471 12.07103973 5.4342041 12.62278748 C3.13176481 16.27974781 3.52243767 19.79817926 3.55273438 24.03540039 C3.5473616 24.94800125 3.54198883 25.86060211 3.53645325 26.80085754 C3.52667612 28.78043056 3.5237309 30.76004643 3.52680969 32.73964119 C3.53128257 35.87045434 3.51730333 39.00070075 3.49841309 42.13145447 C3.45535743 49.90505143 3.44436718 57.67863623 3.43218994 65.45233154 C3.42067937 72.02368097 3.39717129 78.59477215 3.35749817 85.16601372 C3.34388545 88.25442579 3.34810615 91.34249294 3.35290527 94.43092346 C3.34356831 96.31861823 3.33340041 98.20630913 3.32226562 100.09399414 C3.32841385 100.95589355 3.33456207 101.81779297 3.34089661 102.70581055 C3.27974088 108.59031271 3.27974088 108.59031271 1.55001068 110.66092587 C-0.44457855 112.31728876 -2.50430115 113.4668222 -4.796875 114.6796875 C-5.75198975 115.18983398 -6.70710449 115.69998047 -7.69116211 116.22558594 C-8.72120361 116.76989258 -9.75124512 117.31419922 -10.8125 117.875 C-19.27093866 122.39519575 -27.66872972 126.9994363 -36 131.75 C-45.259223 137.02141431 -54.60779705 142.08863081 -64.0625 147 C-64.0625 151.62 -64.0625 156.24 -64.0625 161 C-43.12635705 149.94532854 -43.12635705 149.94532854 -22.4375 138.4375 C-14.23588808 133.75573418 -5.97789453 129.19067307 2.33831787 124.71633911 C3.60573068 124.03423624 4.87238319 123.35071861 6.13824463 122.66574097 C7.89838217 121.71416131 9.66200481 120.76903655 11.42578125 119.82421875 C12.44196533 119.27854248 13.45814941 118.73286621 14.50512695 118.1706543 C16.9375 117 16.9375 117 18.9375 117 C18.85318444 107.27289248 18.75833549 97.54595051 18.64997292 87.8190794 C18.59999018 83.30267608 18.55366036 78.78629638 18.515625 74.26977539 C18.4787971 69.91248951 18.43244406 65.55540028 18.37943649 61.19828224 C18.36087924 59.53451798 18.34577621 57.87071155 18.33415604 56.20688438 C18.31731619 53.87949792 18.28828727 51.55256312 18.25634766 49.2253418 C18.25418747 48.53482224 18.25202728 47.84430267 18.24980164 47.13285828 C18.18654004 43.53336742 17.99541628 42.08687442 15.9375 39 C15.32046461 34.94519599 15.61711899 33.45630023 18 30.0625 C20.9375 28 20.9375 28 24.5 27.9375 C28.21317907 29.08520989 29.7692056 29.79092428 31.9375 33 C32.375 36 32.375 36 31.9375 39 C31.44108505 39.56614014 30.9446701 40.13228027 30.43321228 40.71557617 C28.34340845 43.90736494 28.5284234 46.86191605 28.56860352 50.55078125 C28.56483704 51.30571869 28.56107056 52.06065613 28.55718994 52.83847046 C28.55076413 54.47428141 28.55108128 56.1101297 28.55737495 57.74594116 C28.56648611 60.33519448 28.55626206 62.92372382 28.54075623 65.51293945 C28.50065249 72.87287275 28.49945654 80.23274907 28.50170898 87.59277344 C28.50176005 92.09736467 28.48261189 96.60156456 28.45237541 101.10604858 C28.44153735 103.65664787 28.45368703 106.2065045 28.46620178 108.75708008 C28.45729853 110.32113381 28.44722456 111.88518147 28.43579102 113.44921875 C28.45040627 114.51225723 28.45040627 114.51225723 28.46531677 115.59677124 C28.41654755 118.9373349 28.17800878 120.69199631 26.09552002 123.35890198 C23.3391797 125.45500146 20.42830909 127.08153135 17.35546875 128.65234375 C16.39287895 129.15653587 16.39287895 129.15653587 15.4108429 129.6709137 C14.03477903 130.39110873 12.65705287 131.10813501 11.27783203 131.82226562 C7.61809705 133.71812289 3.97134438 135.63862057 0.32421875 137.55859375 C-0.40342682 137.94111298 -1.13107239 138.3236322 -1.88076782 138.71774292 C-7.84295152 141.86143978 -13.7185805 145.14148123 -19.5625 148.5 C-30.49295517 154.77147345 -41.61686415 160.66177311 -52.76757812 166.52929688 C-53.44354034 166.88566223 -54.11950256 167.24202759 -54.81594849 167.60919189 C-56.09552736 168.28342302 -57.37598991 168.95598044 -58.65744019 169.62664795 C-61.54575234 171.0453627 -61.54575234 171.0453627 -64.0625 173 C-64.22056531 174.92478813 -64.313635 176.8549921 -64.37890625 178.78515625 C-64.42080078 179.95498047 -64.46269531 181.12480469 -64.50585938 182.33007812 C-64.54517578 183.56177734 -64.58449219 184.79347656 -64.625 186.0625 C-64.66818359 187.29806641 -64.71136719 188.53363281 -64.75585938 189.80664062 C-64.86234198 192.87097335 -64.96435424 195.93539073 -65.0625 199 C-65.3925 199 -65.7225 199 -66.0625 199 C-66.35360292 194.45969019 -66.5307147 189.92177372 -66.6875 185.375 C-66.77128906 184.08980469 -66.85507813 182.80460938 -66.94140625 181.48046875 C-67.18134603 172.21879331 -67.18134603 172.21879331 -64.22045898 168.9934082 C-61.5751904 167.38397111 -58.91855411 166.19387019 -56.0625 165 C-54.10135558 163.9534819 -52.14971312 162.88899865 -50.20703125 161.80859375 C-48.09726549 160.68318574 -45.98654878 159.55955905 -43.875 158.4375 C-35.45800281 153.93834936 -27.09815841 149.36156325 -18.8125 144.625 C-8.24326619 138.58301251 2.48718038 132.86309461 13.26464844 127.20361328 C13.89310165 126.87190628 14.52155487 126.54019928 15.16905212 126.19844055 C16.88510919 125.29273377 18.60325624 124.39099012 20.3215332 123.48950195 C22.99238612 122.12151519 22.99238612 122.12151519 24.9375 120 C25.1547054 117.50272102 25.24886929 115.11286738 25.25634766 112.61279297 C25.26639328 111.85172241 25.2764389 111.09065186 25.28678894 110.30651855 C25.31773702 107.78508272 25.33468808 105.26375361 25.3515625 102.7421875 C25.37026483 100.99625727 25.38983753 99.25033615 25.4102478 97.50442505 C25.46167395 92.90461598 25.50124339 88.30477757 25.53839111 83.70483398 C25.57836523 79.01278361 25.62948755 74.32085639 25.6796875 69.62890625 C25.77657081 60.41935721 25.86093572 51.2097388 25.9375 42 C24.6175 42.33 23.2975 42.66 21.9375 43 C21.6075 67.75 21.2775 92.5 20.9375 118 C0.48223336 129.36403702 0.48223336 129.36403702 -9.8125 134.875 C-18.03345866 139.28955706 -26.24623013 143.71806875 -34.4375 148.1875 C-35.76104492 148.90897217 -35.76104492 148.90897217 -37.11132812 149.64501953 C-41.68593812 152.1424865 -46.25054862 154.65678815 -50.8046875 157.19140625 C-51.72975098 157.70485596 -52.65481445 158.21830566 -53.60791016 158.74731445 C-55.37266785 159.7278239 -57.13546296 160.71187649 -58.89599609 161.69995117 C-59.67797363 162.13412354 -60.45995117 162.5682959 -61.265625 163.015625 C-61.95301758 163.40008789 -62.64041016 163.78455078 -63.34863281 164.18066406 C-65.0625 165 -65.0625 165 -67.0625 165 C-67.0625 158.4 -67.0625 151.8 -67.0625 145 C-63.91074219 143.33324219 -63.91074219 143.33324219 -60.6953125 141.6328125 C-39.77951142 130.5681707 -39.77951142 130.5681707 -19.06689453 119.12939453 C-16.86960971 117.89131419 -14.66753549 116.66202686 -12.46484375 115.43359375 C-10.97646379 114.60173909 -9.48817902 113.76971409 -8 112.9375 C-7.31357422 112.55464844 -6.62714844 112.17179687 -5.91992188 111.77734375 C-2.8037069 110.15057159 -2.8037069 110.15057159 -0.0625 108 C0.06277187 105.10934764 0.12360202 102.24143213 0.14282227 99.34936523 C0.15272186 98.44213715 0.16262146 97.53490906 0.17282104 96.60018921 C0.20453595 93.58635106 0.22923278 90.57249711 0.25390625 87.55859375 C0.27446716 85.47493569 0.29546339 83.39128189 0.31687927 81.30763245 C0.37218909 75.81181269 0.42155894 70.31595474 0.46972656 64.82006836 C0.5198767 59.21659936 0.57559655 53.61318612 0.63085938 48.00976562 C0.73854986 37.006558 0.83997048 26.00330205 0.9375 15 C-0.3825 15 -1.7025 15 -3.0625 15 C-3.0625 45.03 -3.0625 75.06 -3.0625 106 C-10.6525 109.96 -18.2425 113.92 -26.0625 118 C-35.48075965 123.10820862 -44.88175663 128.24410081 -54.26171875 133.421875 C-55.27419678 133.97875 -56.2866748 134.535625 -57.32983398 135.109375 C-59.28319362 136.18382673 -61.23460961 137.2618214 -63.18383789 138.34375 C-64.05645264 138.82328125 -64.92906738 139.3028125 -65.828125 139.796875 C-66.98489746 140.43641113 -66.98489746 140.43641113 -68.16503906 141.08886719 C-70.0625 142 -70.0625 142 -72.0625 142 C-72.0625 160.81 -72.0625 179.62 -72.0625 199 C-72.7225 199 -73.3825 199 -74.0625 199 C-74.0625 179.86 -74.0625 160.72 -74.0625 141 C-47.74960335 126.1274932 -47.74960335 126.1274932 -35.5 119.6875 C-27.402865 115.42419886 -19.36029644 111.11049169 -11.48130798 106.45329285 C-7.27664635 104 -7.27664635 104 -5.0625 104 C-5.12367663 92.46476619 -5.20075797 80.92975929 -5.29821491 69.39477158 C-5.34296565 64.0387497 -5.38221143 58.68280472 -5.40893555 53.32666016 C-5.43492154 48.15885011 -5.47529063 42.99133523 -5.52568626 37.82370758 C-5.54238683 35.85096149 -5.5538812 33.8781643 -5.56011391 31.90535736 C-5.5697203 29.14459703 -5.59773791 26.38459731 -5.63012695 23.62402344 C-5.62869186 22.80618881 -5.62725677 21.98835419 -5.6257782 21.14573669 C-5.69951614 16.7092889 -6.13793982 14.33510078 -9.0625 11 C-9.0625 6.74942192 -8.69462638 4.72243015 -5.875 1.5 C-3.0625 0 -3.0625 0 0 0 Z " fill="#F4F0E3" transform="translate(294.0625,63)"/>
<path d="M0 0 C5.59729596 3.26328838 10.05109305 8.16933092 12.8359375 13.9921875 C14.19964237 20.81071187 14.13077361 26.17729328 10.66796875 32.33203125 C8.8879845 34.96456459 6.84704231 37.02934579 4.4609375 39.1171875 C3.8628125 39.6740625 3.2646875 40.2309375 2.6484375 40.8046875 C-2.44424186 43.86029512 -8.71351508 44.82027081 -14.5390625 44.1171875 C-23.17799038 41.15487571 -27.53211789 36.44768022 -31.9140625 28.6796875 C-33.59690933 21.7800155 -32.843709 15.39468869 -29.5390625 9.1171875 C-22.50184594 -1.04768087 -11.90209064 -4.13826536 0 0 Z " fill="#FBD857" transform="translate(194.5390625,91.8828125)"/>
<path d="M0 0 C9.10785825 6.53994821 16.99515393 15.68932676 19 27 C20.00493921 39.68735751 18.39490866 49.61913453 11 60 C10.4225 60.86625 9.845 61.7325 9.25 62.625 C1.89891465 70.38447898 -7.39524112 74.60188706 -17.953125 75.23828125 C-30.56205224 75.56491473 -38.88504393 73.5577057 -48.7421875 65.19921875 C-52.21943592 61.81221034 -54.69855851 58.25766676 -57 54 C-57.4125 53.29875 -57.825 52.5975 -58.25 51.875 C-62.59295061 43.18909878 -62.59985491 31.30146933 -60.234375 21.984375 C-59.31074001 19.82922669 -58.28923731 17.95407049 -57 16 C-56.1646875 14.515 -56.1646875 14.515 -55.3125 13 C-41.73139177 -4.61873501 -20.24106798 -11.54709862 0 0 Z M-48.2734375 11.66015625 C-56.26351685 22.37609299 -57.07607451 30.91978064 -56 44 C-54.30870586 53.058072 -48.00189574 60.4654351 -40.58984375 65.703125 C-31.92732598 70.73577305 -21.82464041 71.3828392 -12 70 C-3.37137532 67.62594324 4.18421912 62.57342076 9 55 C9.75410156 53.83404297 9.75410156 53.83404297 10.5234375 52.64453125 C15.34720865 43.83648504 15.45349286 33.63476739 13.3359375 23.96875 C10.21786269 15.18391314 3.42689016 8.07335061 -4.62109375 3.515625 C-19.72185047 -3.27029064 -37.16719971 -1.33528694 -48.2734375 11.66015625 Z " fill="#EDEEF1" transform="translate(206,78)"/>
<path d="M0 0 C3.72975427 1.15283314 5.35163561 1.75988138 7.4375 5.0625 C7.26344075 8.42764555 6.94928502 11.03892995 5.4375 14.0625 C5.31558779 16.44174562 5.25191706 18.79373317 5.23217773 21.17431641 C5.21732834 22.27203117 5.21732834 22.27203117 5.20217896 23.391922 C5.17053801 25.81593568 5.14579634 28.23996898 5.12109375 30.6640625 C5.10052646 32.34272782 5.07953005 34.02138793 5.05812073 35.70004272 C5.00287682 40.12231231 4.95347779 44.54462881 4.90527344 48.96697998 C4.85507533 53.47802922 4.79938045 57.98901018 4.74414062 62.5 C4.6365307 71.35410836 4.53509203 80.20827596 4.4375 89.0625 C5.22125 89.35125 6.005 89.64 6.8125 89.9375 C9.4375 91.0625 9.4375 91.0625 11.4375 93.0625 C7.52143425 92.52849103 5.04411066 91.86580533 1.4375 90.0625 C1.4375 64.9825 1.4375 39.9025 1.4375 14.0625 C0.1175 14.0625 -1.2025 14.0625 -2.5625 14.0625 C-2.2325 40.1325 -1.9025 66.2025 -1.5625 93.0625 C12.2975 100.4875 12.2975 100.4875 26.4375 108.0625 C37.6875 114.4375 37.6875 114.4375 43.20703125 117.5859375 C52.86480873 123.02914995 62.7053856 128.14257793 72.52474976 133.28663635 C74.4086184 134.28276972 76.27953022 135.30034101 78.14990234 136.3215332 C81.2932925 138.05469315 81.2932925 138.05469315 84.13525391 139.16870117 C86.53691708 140.25345149 87.86048727 140.94366028 89.4375 143.0625 C90.39922124 147.87071575 90.19024863 152.49743743 89.9375 157.375 C89.90140625 158.68791016 89.8653125 160.00082031 89.828125 161.35351562 C89.73389122 164.59280187 89.60244088 167.82616962 89.4375 171.0625 C89.1075 171.0625 88.7775 171.0625 88.4375 171.0625 C88.53289062 170.34296143 88.62828125 169.62342285 88.7265625 168.88208008 C89.60686065 160.88966378 90.23923214 152.72970263 87.4375 145.0625 C82.09026492 139.02184516 74.04204257 136.35876148 66.71337891 133.43066406 C61.73713047 131.35234418 57.12232293 128.71955094 52.4375 126.0625 C50.62819617 125.06945786 48.81697732 124.07989722 47.00390625 123.09375 C46.09656738 122.59875 45.18922852 122.10375 44.25439453 121.59375 C41.32839278 120.00318985 38.39739662 118.4221967 35.46484375 116.84375 C25.45349654 111.45351863 15.46651382 106.0230177 5.5625 100.4375 C4.67038818 99.94056641 3.77827637 99.44363281 2.85913086 98.93164062 C2.0419458 98.46693359 1.22476074 98.00222656 0.3828125 97.5234375 C-0.33374512 97.11915527 -1.05030273 96.71487305 -1.78857422 96.29833984 C-3.5625 95.0625 -3.5625 95.0625 -5.5625 92.0625 C-5.76477937 89.54234688 -5.85307689 87.13031095 -5.84960938 84.609375 C-5.85985893 83.47477844 -5.85985893 83.47477844 -5.87031555 82.31726074 C-5.88390171 80.67544527 -5.89295619 79.03358749 -5.89802551 77.39172363 C-5.90630731 74.79452731 -5.92680463 72.19768382 -5.95056152 69.60058594 C-6.0070063 63.15095431 -6.04219525 56.70123702 -6.07818604 50.25146484 C-6.10940795 44.80104463 -6.14858422 39.35079527 -6.19844055 33.9005127 C-6.21853752 31.33957657 -6.22683402 28.77877206 -6.23474121 26.21777344 C-6.24771148 24.65038572 -6.26123147 23.08300243 -6.27539062 21.515625 C-6.27440872 20.80176636 -6.27342682 20.08790771 -6.27241516 19.35241699 C-6.31847327 15.69983814 -6.47751508 14.18997738 -8.5625 11.0625 C-9.17953539 7.00769599 -8.88288101 5.51880023 -6.5 2.125 C-3.5625 0.0625 -3.5625 0.0625 0 0 Z " fill="#FCF2CF" transform="translate(52.5625,90.9375)"/>
<path d="M0 0 C7.50762833 2.70691068 12.74369918 7.33670638 16.53515625 14.3515625 C19.30906374 21.39487542 19.47183974 29.812793 17.28515625 37.03515625 C13.97548118 43.66599831 8.08879796 49.66993234 1.2421875 52.5546875 C-7.16257524 54.68459011 -16.18201279 54.34959103 -23.90234375 50.3515625 C-31.43847363 44.98931624 -35.29553136 38.36830309 -36.90234375 29.3515625 C-37.13855283 20.0282511 -34.05067977 12.9826217 -27.8125 6.1484375 C-25.05979946 3.55898505 -22.2914077 2.01286836 -18.90234375 0.3515625 C-13.61766018 -2.29077928 -5.60671521 -1.25264431 0 0 Z M-27.51953125 12.390625 C-31.49585189 18.38880359 -32.86397807 24.18403225 -31.90234375 31.3515625 C-29.11893039 40.00095447 -24.15440715 44.53338214 -16.33984375 48.7265625 C-9.50122775 50.48005378 -3.31369474 48.87459841 3.09765625 46.3515625 C8.62460052 43.03539594 12.08395031 37.39268033 14.09765625 31.3515625 C14.80069344 24.37527034 13.79450499 19.02227329 9.55078125 13.24609375 C5.24720607 8.01896372 1.48095029 4.83169994 -5.453125 3.84765625 C-15.01607291 3.69870068 -21.39589355 4.6695166 -27.51953125 12.390625 Z " fill="#8A4B98" transform="translate(193.90234375,86.6484375)"/>
<path d="M0 0 C4.99268902 1.47931526 4.99268902 1.47931526 6.375 4 C6.95353895 8.46967992 6.91845625 11.18481562 4.375 15 C4.19042684 17.86983044 4.12283218 20.64119262 4.14794922 23.51049805 C4.14765717 24.37900391 4.14736511 25.24750977 4.14706421 26.14233398 C4.14845853 29.01556356 4.16402456 31.88853442 4.1796875 34.76171875 C4.18341727 36.75283161 4.18626441 38.7439463 4.18826294 40.73506165 C4.19590225 45.97776347 4.21555334 51.22035462 4.2376709 56.4630127 C4.25812288 61.81191511 4.26726327 67.16083539 4.27734375 72.50976562 C4.29879892 83.00655906 4.3329385 93.50327033 4.375 104 C4.91892049 104.2853168 5.46284098 104.5706336 6.0232439 104.86459637 C8.51500668 106.17222403 11.00616436 107.48100045 13.49731445 108.78979492 C14.35289192 109.23856743 15.20846939 109.68733994 16.08997345 110.14971161 C22.31589193 113.42213347 28.46543272 116.80549207 34.5625 120.3125 C43.94197657 125.66526188 53.40429051 130.84885598 62.92260742 135.95043945 C63.88400635 136.46695068 64.84540527 136.98346191 65.8359375 137.515625 C66.68978027 137.97227539 67.54362305 138.42892578 68.42333984 138.89941406 C70.375 140 70.375 140 71.375 141 C71.46876053 142.81055025 71.4924411 144.62477201 71.48852539 146.43774414 C71.48841209 148.17943626 71.48841209 148.17943626 71.48829651 149.95631409 C71.48313522 151.219832 71.47797394 152.48334991 71.47265625 153.78515625 C71.4712413 155.07111191 71.46982635 156.35706757 71.46836853 157.68199158 C71.46454418 161.10643443 71.45471462 164.53083509 71.44366455 167.95526123 C71.43344864 171.44738189 71.42887053 174.93950934 71.42382812 178.43164062 C71.41309227 185.28777778 71.39601684 192.14388687 71.375 199 C71.045 199 70.715 199 70.375 199 C70.375 180.19 70.375 161.38 70.375 142 C68.725 141.67 67.075 141.34 65.375 141 C63.20385742 139.96289062 63.20385742 139.96289062 60.98046875 138.65625 C60.12267822 138.15996094 59.2648877 137.66367188 58.38110352 137.15234375 C57.45096436 136.60707031 56.5208252 136.06179687 55.5625 135.5 C44.28225115 128.99326863 32.82346214 122.87233448 21.29174805 116.82617188 C20.6274881 116.47647339 19.96322815 116.1267749 19.27883911 115.76647949 C17.47248344 114.81570288 15.66416922 113.86864987 13.85571289 112.921875 C12.13276001 111.97054687 12.13276001 111.97054687 10.375 111 C9.35685007 110.52330588 9.35685007 110.52330588 8.31813145 110.03698158 C2.82288729 107.18461858 2.82288729 107.18461858 1.64495564 104.06910324 C1.37385399 101.66035997 1.36175951 99.36593317 1.43505859 96.94287109 C1.4284874 95.58838112 1.4284874 95.58838112 1.42178345 94.20652771 C1.41716701 91.22733063 1.46961407 88.25210578 1.5234375 85.2734375 C1.53328614 83.20270035 1.53988336 81.13194539 1.54336548 79.06118774 C1.55863943 74.72478224 1.59973877 70.3896986 1.66162109 66.05371094 C1.74087008 60.49049307 1.77685408 54.92813413 1.79623985 49.36441612 C1.81616853 44.06313982 1.85595145 38.76207394 1.8984375 33.4609375 C1.905229 32.44673107 1.91202049 31.43252464 1.91901779 30.38758469 C1.94213089 27.52424723 1.97916319 24.66145758 2.02099609 21.79833984 C2.0263739 20.94736221 2.03175171 20.09638458 2.03729248 19.21961975 C2.10895941 15.31634417 2.16200679 13.31948981 4.375 10 C4.0508631 6.67759676 3.76723697 5.39223697 1.375 3 C-1.125 2.66666667 -1.125 2.66666667 -3.625 3 C-6.00494368 4.94332332 -6.00494368 4.94332332 -5.875 8.5 C-6.00494368 12.05667668 -6.00494368 12.05667668 -3.625 14 C-3.43661646 17.01330006 -3.37335557 19.93405043 -3.39794922 22.94775391 C-3.39765717 23.87463516 -3.39736511 24.80151642 -3.39706421 25.75648499 C-3.39846111 28.82993834 -3.41403925 31.90315133 -3.4296875 34.9765625 C-3.43341635 37.10362618 -3.43626392 39.23069156 -3.43826294 41.35775757 C-3.44590948 46.96379312 -3.46556673 52.5697255 -3.4876709 58.17572021 C-3.50810736 63.89317428 -3.51725994 69.61064496 -3.52734375 75.328125 C-3.54881166 86.55212873 -3.5829599 97.7760558 -3.625 109 C-4.285 108.67 -4.945 108.34 -5.625 108 C-5.63308685 106.82680206 -5.64117371 105.65360413 -5.64950562 104.44485474 C-5.72686749 93.40827062 -5.81458123 82.3718113 -5.91252708 71.33539009 C-5.96255112 65.66095568 -6.00888047 59.98654044 -6.046875 54.31201172 C-6.08365082 48.83953127 -6.12998944 43.36720894 -6.18306351 37.89486313 C-6.20164854 35.80322915 -6.21674117 33.71156123 -6.22834396 31.61987686 C-6.24513632 28.69840423 -6.27415387 25.777297 -6.30615234 22.85595703 C-6.30831253 21.98417816 -6.31047272 21.11239929 -6.31269836 20.21420288 C-6.17115078 15.62908513 -6.17115078 15.62908513 -8.625 12 C-9.20117676 7.63751885 -9.08200903 5.66474041 -6.5625 2 C-3.625 0 -3.625 0 0 0 Z " fill="#FCF8E9" transform="translate(77.625,63)"/>
<path d="M0 0 C3.39470755 1.15564512 4.87501175 2.06492057 6.9375 5 C7.375 8 7.375 8 6.9375 11 C6.19484138 11.80180695 6.19484138 11.80180695 5.43717957 12.61981201 C3.12758023 16.2854488 3.49807311 19.83332993 3.50512695 24.08300781 C3.4949353 25.00042755 3.48474365 25.91784729 3.47424316 26.86306763 C3.44406736 29.89314851 3.43484014 32.92291348 3.42578125 35.953125 C3.40893798 38.05492202 3.39078822 40.15670895 3.37138367 42.25848389 C3.32383942 47.78878627 3.29405858 53.31904773 3.26794434 58.8494873 C3.23816121 64.49349043 3.19162315 70.13735249 3.14648438 75.78125 C3.06040086 86.85409294 2.99307795 97.92696487 2.9375 109 C2.6075 109 2.2775 109 1.9375 109 C1.89121305 96.66536645 1.85564933 84.33075346 1.83387566 71.99605083 C1.82342678 66.26890183 1.80924744 60.54181213 1.78662109 54.81469727 C1.76493209 49.29043302 1.75293969 43.76622591 1.74774551 38.24192238 C1.74404266 36.13154005 1.73681218 34.02116093 1.72603989 31.91080284 C1.71157742 28.96089225 1.70951986 26.01121948 1.71044922 23.0612793 C1.70325867 22.18374496 1.69606812 21.30621063 1.68865967 20.40208435 C1.70939568 14.34215648 1.70939568 14.34215648 3.9375 11 C4.27090471 7.95804573 4.27090471 7.95804573 3.9375 5 C2.11546419 2.77033253 2.11546419 2.77033253 -0.5 2.6875 C-3.05532027 2.82275592 -3.05532027 2.82275592 -4.9375 4.125 C-6.36038457 6.0847639 -6.36038457 6.0847639 -5.8125 9.125 C-5.35316476 11.87790841 -5.35316476 11.87790841 -4.0625 13 C-3.96726095 15.89143151 -3.93696973 18.75892064 -3.94897461 21.65063477 C-3.94882858 22.55786285 -3.94868256 23.46509094 -3.9485321 24.39981079 C-3.94923159 27.41369985 -3.95702566 30.42752793 -3.96484375 33.44140625 C-3.9667078 35.52505967 -3.96813176 37.60871354 -3.96913147 39.69236755 C-3.97295766 45.18823446 -3.9827888 50.68407513 -3.99383545 56.17993164 C-4.0040474 61.78336227 -4.00862863 67.38679713 -4.01367188 72.99023438 C-4.02441098 83.99350114 -4.04148861 94.99674839 -4.0625 106 C-28.46870568 119.89328141 -28.46870568 119.89328141 -38.875 125.1875 C-46.84028428 129.28465901 -54.71130198 133.51067102 -62.48168945 137.9675293 C-65.72721006 139.80843871 -68.41213249 141.08740812 -72.0625 142 C-72.0625 160.81 -72.0625 179.62 -72.0625 199 C-72.7225 199 -73.3825 199 -74.0625 199 C-74.0625 179.86 -74.0625 160.72 -74.0625 141 C-47.74960335 126.1274932 -47.74960335 126.1274932 -35.5 119.6875 C-27.402865 115.42419886 -19.36029644 111.11049169 -11.48130798 106.45329285 C-7.27664635 104 -7.27664635 104 -5.0625 104 C-5.12367663 92.46476619 -5.20075797 80.92975929 -5.29821491 69.39477158 C-5.34296565 64.0387497 -5.38221143 58.68280472 -5.40893555 53.32666016 C-5.43492154 48.15885011 -5.47529063 42.99133523 -5.52568626 37.82370758 C-5.54238683 35.85096149 -5.5538812 33.8781643 -5.56011391 31.90535736 C-5.5697203 29.14459703 -5.59773791 26.38459731 -5.63012695 23.62402344 C-5.62869186 22.80618881 -5.62725677 21.98835419 -5.6257782 21.14573669 C-5.69951614 16.7092889 -6.13793982 14.33510078 -9.0625 11 C-9.0625 6.74942192 -8.69462638 4.72243015 -5.875 1.5 C-3.0625 0 -3.0625 0 0 0 Z " fill="#F2EEDE" transform="translate(294.0625,63)"/>
<path d="M0 0 C2.375 1.625 2.375 1.625 4 4 C3.6875 9.3125 3.6875 9.3125 2 11 C1.87472813 13.89065236 1.81389798 16.75856787 1.79467773 19.65063477 C1.77982834 21.0114769 1.77982834 21.0114769 1.76467896 22.39981079 C1.73296405 25.41364894 1.70826722 28.42750289 1.68359375 31.44140625 C1.66303284 33.52506431 1.64203661 35.60871811 1.62062073 37.69236755 C1.56531091 43.18818731 1.51594106 48.68404526 1.46777344 54.17993164 C1.4176233 59.78340064 1.36190345 65.38681388 1.30664062 70.99023438 C1.19895014 81.993442 1.09752952 92.99669795 1 104 C0.67 104 0.34 104 0 104 C0 73.97 0 43.94 0 13 C-1.32 13 -2.64 13 -4 13 C-4 43.36 -4 73.72 -4 105 C-4.33 105 -4.66 105 -5 105 C-5.00808685 103.83933014 -5.01617371 102.67866028 -5.02450562 101.4828186 C-5.10186829 90.56396265 -5.18958223 79.64523283 -5.28752708 68.72654152 C-5.33755061 63.11264153 -5.38387997 57.49876093 -5.421875 51.88476562 C-5.45865146 46.47063883 -5.50499026 41.05667184 -5.55806351 35.64268112 C-5.5766482 33.57337614 -5.59174095 31.50403685 -5.60334396 29.43468094 C-5.62013691 26.54433956 -5.64915459 23.65436745 -5.68115234 20.76416016 C-5.68331253 19.90173203 -5.68547272 19.03930389 -5.68769836 18.15074158 C-5.55233194 13.59895759 -5.55233194 13.59895759 -8 10 C-8.55416667 3.90416667 -8.55416667 3.90416667 -6.8125 1.0625 C-4.29445572 -0.41359492 -2.87523324 -0.49089348 0 0 Z " fill="#876D8D" transform="translate(79,65)"/>
<path d="M0 0 C1.8125 1.125 1.8125 1.125 3 3 C3.42478586 7.07794425 3.31282587 8.53076119 1 12 C0.78612695 14.98867957 0.68867418 17.8872019 0.68115234 20.87768555 C0.67110672 21.78520569 0.6610611 22.69272583 0.65071106 23.62774658 C0.61979298 26.63073079 0.60281994 29.63362551 0.5859375 32.63671875 C0.56723279 34.71752192 0.54765991 36.79831745 0.5272522 38.87910461 C0.47585135 44.35844424 0.43626818 49.83780849 0.39910889 55.31726074 C0.35911907 60.90753304 0.30800385 66.49770225 0.2578125 72.08789062 C0.16095905 83.05852142 0.07658442 94.02921031 0 105 C-0.33 105 -0.66 105 -1 105 C-1 74.64 -1 44.28 -1 13 C-2.32 13 -3.64 13 -5 13 C-5 43.03 -5 73.06 -5 104 C-5.33 104 -5.66 104 -6 104 C-6.00808685 102.84155075 -6.01617371 101.6831015 -6.02450562 100.48954773 C-6.10190528 89.58571974 -6.18962885 78.68201748 -6.28752708 67.77835369 C-6.33752698 62.17232945 -6.3838567 56.56632439 -6.421875 50.96020508 C-6.45868111 45.55255792 -6.50502831 40.14506986 -6.55806351 34.73755836 C-6.57663234 32.67187089 -6.59173104 30.60614928 -6.60334396 28.540411 C-6.62016382 25.65266921 -6.64918851 22.76529378 -6.68115234 19.87768555 C-6.68331253 19.01885269 -6.68547272 18.16001984 -6.68769836 17.27516174 C-6.74339578 13.35041555 -6.77467047 11.33799429 -9 8 C-8.7909311 5.21241468 -8.33997443 3.49296292 -6.75 1.1875 C-4.3314673 -0.45364719 -2.86449123 -0.42967368 0 0 Z " fill="#876D8D" transform="translate(296,65)"/>
<path d="M0 0 C2 3 2 3 1.6875 6.125 C1 9 1 9 0 10 C-0.12489698 12.40250532 -0.1860079 14.77772785 -0.20532227 17.18188477 C-0.22017166 18.3086412 -0.22017166 18.3086412 -0.23532104 19.4581604 C-0.26702546 21.95254312 -0.29172859 24.44694491 -0.31640625 26.94140625 C-0.33696807 28.66634123 -0.35796433 30.39127108 -0.37937927 32.11619568 C-0.43467971 36.66506814 -0.48405369 41.21398667 -0.53222656 45.76293945 C-0.58238354 50.40124633 -0.63809983 55.03948598 -0.69335938 59.67773438 C-0.80103839 68.78509888 -0.90246157 77.89252165 -1 87 C-1.33 87 -1.66 87 -2 87 C-2 61.92 -2 36.84 -2 11 C-3.32 11 -4.64 11 -6 11 C-6 36.41 -6 61.82 -6 88 C-6.33 88 -6.66 88 -7 88 C-7 62.26 -7 36.52 -7 10 C-7.66 10 -8.32 10 -9 10 C-10.39935013 7.20129973 -10.25265405 5.09501208 -10 2 C-7.65569181 -2.27491494 -4.20074737 -1.06928115 0 0 Z " fill="#85698C" transform="translate(56,94)"/>
<path d="M0 0 C3.39470755 1.15564512 4.87501175 2.06492057 6.9375 5 C7.375 8 7.375 8 6.9375 11 C6.19484138 11.80180695 6.19484138 11.80180695 5.43717957 12.61981201 C3.12758023 16.2854488 3.49807311 19.83332993 3.50512695 24.08300781 C3.4949353 25.00042755 3.48474365 25.91784729 3.47424316 26.86306763 C3.44406736 29.89314851 3.43484014 32.92291348 3.42578125 35.953125 C3.40893798 38.05492202 3.39078822 40.15670895 3.37138367 42.25848389 C3.32383942 47.78878627 3.29405858 53.31904773 3.26794434 58.8494873 C3.23816121 64.49349043 3.19162315 70.13735249 3.14648438 75.78125 C3.06040086 86.85409294 2.99307795 97.92696487 2.9375 109 C2.6075 109 2.2775 109 1.9375 109 C1.89121305 96.66536645 1.85564933 84.33075346 1.83387566 71.99605083 C1.82342678 66.26890183 1.80924744 60.54181213 1.78662109 54.81469727 C1.76493209 49.29043302 1.75293969 43.76622591 1.74774551 38.24192238 C1.74404266 36.13154005 1.73681218 34.02116093 1.72603989 31.91080284 C1.71157742 28.96089225 1.70951986 26.01121948 1.71044922 23.0612793 C1.70325867 22.18374496 1.69606812 21.30621063 1.68865967 20.40208435 C1.70939568 14.34215648 1.70939568 14.34215648 3.9375 11 C4.27090471 7.95804573 4.27090471 7.95804573 3.9375 5 C2.11546419 2.77033253 2.11546419 2.77033253 -0.5 2.6875 C-3.05532027 2.82275592 -3.05532027 2.82275592 -4.9375 4.125 C-6.36038457 6.0847639 -6.36038457 6.0847639 -5.8125 9.125 C-5.35316476 11.87790841 -5.35316476 11.87790841 -4.0625 13 C-3.96727582 15.86091818 -3.93696674 18.69763621 -3.94897461 21.55883789 C-3.94882858 22.45631241 -3.94868256 23.35378693 -3.9485321 24.27845764 C-3.94923158 27.25988134 -3.95702559 30.2412434 -3.96484375 33.22265625 C-3.96670781 35.28388942 -3.96813177 37.34512304 -3.96913147 39.40635681 C-3.97295763 44.8430401 -3.98278874 50.27969686 -3.99383545 55.71636963 C-4.00404747 61.25947714 -4.00862864 66.80258892 -4.01367188 72.34570312 C-4.02441092 83.23048043 -4.04148851 94.11523802 -4.0625 105 C-5.0525 104.67 -6.0425 104.34 -7.0625 104 C-6.4025 104 -5.7425 104 -5.0625 104 C-5.12367663 92.46476619 -5.20075797 80.92975929 -5.29821491 69.39477158 C-5.34296565 64.0387497 -5.38221143 58.68280472 -5.40893555 53.32666016 C-5.43492154 48.15885011 -5.47529063 42.99133523 -5.52568626 37.82370758 C-5.54238683 35.85096149 -5.5538812 33.8781643 -5.56011391 31.90535736 C-5.5697203 29.14459703 -5.59773791 26.38459731 -5.63012695 23.62402344 C-5.62869186 22.80618881 -5.62725677 21.98835419 -5.6257782 21.14573669 C-5.69951614 16.7092889 -6.13793982 14.33510078 -9.0625 11 C-9.0625 6.74942192 -8.69462638 4.72243015 -5.875 1.5 C-3.0625 0 -3.0625 0 0 0 Z " fill="#FEFEFE" transform="translate(294.0625,63)"/>
<path d="M0 0 C0.99 1.485 0.99 1.485 2 3 C-1.16629091 4.7298553 -4.33307695 6.45880226 -7.5 8.1875 C-8.98222046 8.99682983 -8.98222046 8.99682983 -10.49438477 9.82250977 C-15.65531999 12.63826665 -20.8202912 15.44602947 -25.99609375 18.234375 C-42.33521537 27.02566242 -42.33521537 27.02566242 -58.44750977 36.22363281 C-63.30099558 39.05423721 -68.06735209 41.50331377 -73.296875 43.5703125 C-81.987331 47.0353009 -81.987331 47.0353009 -89 53 C-91.8293169 61.34036884 -91.01008752 70.37879756 -90 79 C-90.33 79 -90.66 79 -91 79 C-91.29110292 74.45969019 -91.4682147 69.92177372 -91.625 65.375 C-91.70878906 64.08980469 -91.79257813 62.80460937 -91.87890625 61.48046875 C-92.11884603 52.21879331 -92.11884603 52.21879331 -89.15795898 48.9934082 C-86.5126904 47.38397111 -83.85605411 46.19387019 -81 45 C-79.03885558 43.9534819 -77.08721312 42.88899865 -75.14453125 41.80859375 C-73.03476549 40.68318574 -70.92404878 39.55955905 -68.8125 38.4375 C-60.39550281 33.93834936 -52.03565841 29.36156325 -43.75 24.625 C-33.18076619 18.58301251 -22.45031962 12.86309461 -11.67285156 7.20361328 C-11.04439835 6.87190628 -10.41594513 6.54019928 -9.76844788 6.19844055 C-8.05239081 5.29273377 -6.33424376 4.39099012 -4.6159668 3.48950195 C-1.94511388 2.12151519 -1.94511388 2.12151519 0 0 Z " fill="#E0DDD5" transform="translate(319,183)"/>
<path d="M0 0 C0.70382813 0.59941406 1.40765625 1.19882813 2.1328125 1.81640625 C4.97851135 3.98363466 7.64391502 5.41864833 10.875 6.9375 C17.47292377 10.12149191 23.82807753 13.67869455 30.1875 17.3125 C37.25576403 21.34478126 44.3449897 25.3032841 51.5625 29.0625 C58.59807296 32.72770708 65.59437792 36.45790862 72.5625 40.25 C73.45461182 40.733479 74.34672363 41.21695801 75.26586914 41.71508789 C76.99408195 42.65791089 78.71277221 43.61842411 80.42089844 44.59716797 C83.00069783 46.05795314 83.00069783 46.05795314 85.85253906 47.18798828 C88.78501781 48.54012343 90.78909909 49.63626138 93 52 C94.22596449 56.84128151 93.94796075 61.42127899 93.625 66.375 C93.57988281 67.68339844 93.53476563 68.99179688 93.48828125 70.33984375 C93.37059044 73.56457191 93.20645502 76.77993695 93 80 C92.67 80 92.34 80 92 80 C92.09539062 79.28046143 92.19078125 78.56092285 92.2890625 77.81958008 C93.16936065 69.82716378 93.80173214 61.66720263 91 54 C85.65276492 47.95934516 77.60454257 45.29626148 70.27587891 42.36816406 C65.29963047 40.28984418 60.68482293 37.65705094 56 35 C54.19069617 34.00695786 52.37947732 33.01739722 50.56640625 32.03125 C49.65906738 31.53625 48.75172852 31.04125 47.81689453 30.53125 C44.89089278 28.94068985 41.95989662 27.3596967 39.02734375 25.78125 C25.90392407 18.71341725 12.90096579 11.46651539 0 4 C0 2.68 0 1.36 0 0 Z " fill="#E8E5DB" transform="translate(49,182)"/>
<path d="M0 0 C6.95099284 0.34754964 12.01836389 3.38209457 18 6.75 C19.04583252 7.32766113 20.09166504 7.90532227 21.16918945 8.50048828 C24.45383644 10.32023048 27.72830693 12.15708119 31 14 C32.56113525 14.87833496 32.56113525 14.87833496 34.15380859 15.77441406 C38.13180658 18.01562861 42.10739612 20.26092708 46.07666016 22.51757812 C52.29177472 26.05040302 58.54389076 29.49312254 64.8671875 32.828125 C67 34 67 34 68 35 C68.09376053 36.81055025 68.1174411 38.62477201 68.11352539 40.43774414 C68.11341209 42.17943626 68.11341209 42.17943626 68.11329651 43.95631409 C68.10813522 45.219832 68.10297394 46.48334991 68.09765625 47.78515625 C68.0962413 49.07111191 68.09482635 50.35706757 68.09336853 51.68199158 C68.08954418 55.10643443 68.07971462 58.53083509 68.06866455 61.95526123 C68.05844864 65.44738189 68.05387053 68.93950934 68.04882812 72.43164062 C68.03809227 79.28777778 68.02101684 86.14388687 68 93 C67.67 93 67.34 93 67 93 C67 74.19 67 55.38 67 36 C65.35 35.67 63.7 35.34 62 35 C59.82885742 33.96289062 59.82885742 33.96289062 57.60546875 32.65625 C56.74759766 32.15988037 55.88972656 31.66351074 55.00585938 31.15209961 C54.07580078 30.60690674 53.14574219 30.06171387 52.1875 29.5 C40.87202025 22.9764883 29.38135396 16.82848297 17.82885742 10.73828125 C17.16278976 10.38677505 16.49672211 10.03526886 15.81047058 9.67311096 C13.99687107 8.71661855 12.18207189 7.76240179 10.3671875 6.80834961 C6.87318591 4.93189443 3.43488416 2.98210515 0 1 C0 0.67 0 0.34 0 0 Z " fill="#EEEDE9" transform="translate(81,169)"/>
<path d="M0 0 C3.0625 0.3125 3.0625 0.3125 4.9375 1.4375 C6.56781294 4.15468824 6.39265665 6.20902746 6.0625 9.3125 C5.4025 9.9725 4.7425 10.6325 4.0625 11.3125 C3.8452946 13.80977898 3.75113071 16.19963262 3.74365234 18.69970703 C3.73360672 19.46077759 3.7235611 20.22184814 3.71321106 21.00598145 C3.68226298 23.52741728 3.66531192 26.04874639 3.6484375 28.5703125 C3.62973517 30.31624273 3.61016247 32.06216385 3.5897522 33.80807495 C3.53832605 38.40788402 3.49875661 43.00772243 3.46160889 47.60766602 C3.42163477 52.29971639 3.37051245 56.99164361 3.3203125 61.68359375 C3.22342919 70.89314279 3.13906428 80.1027612 3.0625 89.3125 C2.7325 89.3125 2.4025 89.3125 2.0625 89.3125 C2.0625 63.9025 2.0625 38.4925 2.0625 12.3125 C0.4125 12.6425 -1.2375 12.9725 -2.9375 13.3125 C-5.12992277 10.33080504 -5.97100875 8.88214872 -5.75 5.125 C-4.65355671 1.32961937 -3.97560397 0.42293659 0 0 Z " fill="#9E76A7" transform="translate(317.9375,92.6875)"/>
<path d="M0 0 C0.495 1.98 0.495 1.98 1 4 C0.33282959 4.35602295 -0.33434082 4.7120459 -1.02172852 5.07885742 C-13.10627687 11.53572154 -25.15608932 18.0311505 -37.0625 24.8125 C-43.9538178 28.73597198 -50.86801021 32.59886283 -57.875 36.3125 C-58.58922119 36.69188721 -59.30344238 37.07127441 -60.03930664 37.4621582 C-64.86923682 40 -64.86923682 40 -66 40 C-66.33 45.94 -66.66 51.88 -67 58 C-67.33 58 -67.66 58 -68 58 C-68 51.4 -68 44.8 -68 38 C-65.89882812 36.88882813 -63.79765625 35.77765625 -61.6328125 34.6328125 C-40.71447651 23.56656897 -40.71447651 23.56656897 -20 12.125 C-17.81740161 10.8972884 -15.62795661 9.68238137 -13.4375 8.46875 C-11.95826443 7.6459572 -10.47909529 6.82304496 -9 6 C-8.32195312 5.62552734 -7.64390625 5.25105469 -6.9453125 4.86523438 C-4.34284596 3.41012082 -2.11948747 2.11948747 0 0 Z " fill="#DFDCD3" transform="translate(295,170)"/>
<path d="M0 0 C0.99 0.495 0.99 0.495 2 1 C2 1.66 2 2.32 2 3 C2.87366211 3.27005859 3.74732422 3.54011719 4.64746094 3.81835938 C7.85570473 4.94914149 10.65549544 6.28467296 13.640625 7.90625 C15.2335437 8.76754517 15.2335437 8.76754517 16.85864258 9.64624023 C17.97779053 10.25798096 19.09693848 10.86972168 20.25 11.5 C21.40717529 12.127854 22.56435059 12.75570801 23.7565918 13.40258789 C31.88186629 17.81500678 39.9711179 22.29154753 48.04296875 26.80078125 C53.65977393 29.93315093 59.32607444 32.97256976 65 36 C63.515 36.99 63.515 36.99 62 38 C45.68752359 29.34082538 29.46988625 20.55709802 13.43994141 11.38183594 C10.24915783 9.57476819 7.02887881 7.82330785 3.80151367 6.08251953 C2 5 2 5 0 3 C0 2.01 0 1.02 0 0 Z " fill="#E8E5D9" transform="translate(74,170)"/>
<path d="M0 0 C0.66 0.99 1.32 1.98 2 3 C1.43829102 3.30591064 0.87658203 3.61182129 0.29785156 3.92700195 C-1.4047704 4.85446468 -3.10722831 5.78222859 -4.80957031 6.71020508 C-6.78235855 7.78521415 -8.75567283 8.85925838 -10.72949219 9.93237305 C-15.78528541 12.68474688 -20.82817955 15.45615317 -25.84375 18.28125 C-26.75415039 18.79131592 -27.66455078 19.30138184 -28.60253906 19.8269043 C-30.34775553 20.80621472 -32.08940149 21.79191944 -33.82714844 22.78442383 C-34.6112207 23.22294678 -35.39529297 23.66146973 -36.203125 24.11328125 C-36.89051758 24.50298096 -37.57791016 24.89268066 -38.28613281 25.29418945 C-39.13449707 25.64356567 -39.13449707 25.64356567 -40 26 C-40.66 25.67 -41.32 25.34 -42 25 C-39.40531901 22.01422356 -36.41357134 20.46476443 -32.93359375 18.63671875 C-32.34006607 18.32225296 -31.74653839 18.00778717 -31.13502502 17.68379211 C-29.23854218 16.67982659 -27.33834399 15.68318019 -25.4375 14.6875 C-11.89429405 8.46249087 -11.89429405 8.46249087 0 0 Z " fill="#E3E0D8" transform="translate(319,183)"/>
<path d="M0 0 C0.70253906 0.598125 1.40507813 1.19625 2.12890625 1.8125 C4.99120086 3.99329589 7.69203467 5.45950719 10.9375 7 C21.16073814 11.94640653 31.05621302 17.5202467 41 23 C41 23.33 41 23.66 41 24 C33.78532248 23.70406556 28.37928215 20.2898662 22.1875 16.8125 C21.15818359 16.24724609 20.12886719 15.68199219 19.06835938 15.09960938 C16.03191969 13.42294154 13.01622635 11.71269157 10 10 C9.01338379 9.4642334 8.02676758 8.9284668 7.01025391 8.37646484 C6.09550293 7.86422363 5.18075195 7.35198242 4.23828125 6.82421875 C3.42012939 6.37522217 2.60197754 5.92622559 1.7590332 5.46362305 C1.17855225 4.98062744 0.59807129 4.49763184 0 4 C0 2.68 0 1.36 0 0 Z " fill="#E7E4D9" transform="translate(49,182)"/>
<path d="M0 0 C7.30355658 0.28090602 12.85366895 3.81195703 19.125 7.3125 C20.19621094 7.89451172 21.26742187 8.47652344 22.37109375 9.07617188 C27.2541715 11.76095248 31.7100603 14.4195466 36 18 C33 19 33 19 30.38378906 17.8918457 C29.35479492 17.32554443 28.32580078 16.75924316 27.265625 16.17578125 C26.13382813 15.55896484 25.00203125 14.94214844 23.8359375 14.30664062 C22.64052582 13.64210546 21.44521407 12.97739052 20.25 12.3125 C19.07081113 11.66640681 17.89112832 11.02121426 16.7109375 10.37695312 C11.10903707 7.30607006 5.53218629 4.1947567 0 1 C0 0.67 0 0.34 0 0 Z " fill="#E2E0D9" transform="translate(81,169)"/>
<path d="M0 0 C2.475 0.495 2.475 0.495 5 1 C5 7.6 5 14.2 5 21 C-3.88914435 16.63075956 -12.62886195 12.31245299 -21 7 C-18 6 -18 6 -15.63989258 6.98803711 C-14.28093872 7.7499939 -14.28093872 7.7499939 -12.89453125 8.52734375 C-11.91162109 9.07197266 -10.92871094 9.61660156 -9.91601562 10.17773438 C-8.89185547 10.75845703 -7.86769531 11.33917969 -6.8125 11.9375 C-5.77673828 12.51435547 -4.74097656 13.09121094 -3.67382812 13.68554688 C-1.11070228 15.1147553 1.44679174 16.55317145 4 18 C3.91299202 15.56077639 3.80613998 13.12521586 3.6875 10.6875 C3.66494141 9.99720703 3.64238281 9.30691406 3.61914062 8.59570312 C3.4163003 4.50793266 3.4163003 4.50793266 1.45703125 1.01953125 C0.97621094 0.68308594 0.49539062 0.34664062 0 0 Z " fill="#F2F1EB" transform="translate(137,207)"/>
<path d="M0 0 C5.65065076 0.49019841 9.6005994 2.74466749 14.375 5.5625 C16.89125 7.026875 19.4075 8.49125 22 10 C22 19.24 22 28.48 22 38 C21.67 38 21.34 38 21 38 C21.07444336 37.26998779 21.14888672 36.53997559 21.22558594 35.7878418 C22.24030932 23.74632818 22.24030932 23.74632818 20 12 C14.89404399 6.13007292 7.24191646 3.37608687 0 1 C0 0.67 0 0.34 0 0 Z " fill="#F4F2EA" transform="translate(120,224)"/>
<path d="M0 0 C0.66 0.33 1.32 0.66 2 1 C-1.56660398 5.16900626 -5.88704047 7.2917163 -10.6875 9.75 C-11.47189453 10.16121094 -12.25628906 10.57242188 -13.06445312 10.99609375 C-18.83774138 14 -18.83774138 14 -20 14 C-20.33 19.94 -20.66 25.88 -21 32 C-21.33 32 -21.66 32 -22 32 C-22 25.4 -22 18.8 -22 12 C-18.3801503 9.96942533 -14.75473031 7.95026867 -11.125 5.9375 C-10.09246094 5.35677734 -9.05992187 4.77605469 -7.99609375 4.17773438 C-7.00996094 3.63310547 -6.02382812 3.08847656 -5.0078125 2.52734375 C-4.09660645 2.01937256 -3.18540039 1.51140137 -2.24658203 0.98803711 C-1.13452393 0.49895874 -1.13452393 0.49895874 0 0 Z " fill="#D4D2CC" transform="translate(249,196)"/>
<path d="M0 0 C3.71317907 1.14770989 5.2692056 1.85342428 7.4375 5.0625 C7.94049316 9.17027749 7.76499345 10.57125983 5.4375 14.0625 C4.4475 13.7325 3.4575 13.4025 2.4375 13.0625 C3.0975 12.4025 3.7575 11.7425 4.4375 11.0625 C4.77083333 8.0625 4.77083333 8.0625 4.4375 5.0625 C2.55090125 2.75587401 2.55090125 2.75587401 -0.5625 2.75 C-1.5525 2.853125 -2.5425 2.95625 -3.5625 3.0625 C-5.9165441 5.88547795 -5.9165441 5.88547795 -5.1875 9.0625 C-4.98125 10.0525 -4.775 11.0425 -4.5625 12.0625 C-4.5625 13.0525 -4.5625 14.0425 -4.5625 15.0625 C-7.29956304 12.83863628 -8.45193111 11.6399153 -9.125 8.125 C-8.12525449 2.68194111 -5.5711884 0.09774015 0 0 Z " fill="#F4EBDD" transform="translate(318.5625,90.9375)"/>
<path d="M0 0 C3.39470755 1.15564512 4.87501175 2.06492057 6.9375 5 C7.4375 8 7.4375 8 6.9375 11 C4.9375 13.375 4.9375 13.375 2.9375 15 C3.03289062 14.30132812 3.12828125 13.60265625 3.2265625 12.8828125 C3.33742188 11.97273438 3.44828125 11.06265625 3.5625 10.125 C3.67851562 9.22007813 3.79453125 8.31515625 3.9140625 7.3828125 C3.92179687 6.59648438 3.92953125 5.81015625 3.9375 5 C2.11546419 2.77033253 2.11546419 2.77033253 -0.5 2.6875 C-3.05532027 2.82275592 -3.05532027 2.82275592 -4.9375 4.125 C-6.62022969 6.92954949 -5.77280284 8.9004967 -5.0625 12 C-5.0625 12.99 -5.0625 13.98 -5.0625 15 C-7.125 13.4375 -7.125 13.4375 -9.0625 11 C-9.13885097 6.72434594 -8.70635417 4.73583334 -5.875 1.5 C-3.0625 0 -3.0625 0 0 0 Z " fill="#F4EADD" transform="translate(294.0625,63)"/>
<path d="M0 0 C3.72975427 1.15283314 5.35163561 1.75988138 7.4375 5.0625 C7.26344075 8.42764555 6.94928502 11.03892995 5.4375 14.0625 C4.4475 13.7325 3.4575 13.4025 2.4375 13.0625 C3.0975 12.0725 3.7575 11.0825 4.4375 10.0625 C4.12243373 6.92028033 4.12243373 6.92028033 3.4375 4.0625 C0.03429066 3.38576553 0.03429066 3.38576553 -3.5625 3.0625 C-5.74581689 4.82386355 -5.74581689 4.82386355 -5.7578125 7.0078125 C-5.73460937 7.72710937 -5.71140625 8.44640625 -5.6875 9.1875 C-5.625625 11.105625 -5.625625 11.105625 -5.5625 13.0625 C-4.9025 13.3925 -4.2425 13.7225 -3.5625 14.0625 C-4.5525 14.0625 -5.5425 14.0625 -6.5625 14.0625 C-8.90799674 10.54425489 -9.14241403 9.20474306 -8.5625 5.0625 C-5.88937913 1.25532785 -4.71546409 0.08272744 0 0 Z " fill="#F4EBE0" transform="translate(52.5625,90.9375)"/>
<path d="M0 0 C0.66 0.33 1.32 0.66 2 1 C-0.96777568 4.33549978 -3.57108022 5.75406554 -7.67578125 7.4140625 C-11.19945842 9.27640177 -12.69407965 10.09481516 -13.98583984 13.91699219 C-14.30894167 17.44799688 -14.31992557 20.83213619 -14.1875 24.375 C-14.18556641 25.58800781 -14.18363281 26.80101562 -14.18164062 28.05078125 C-14.16988043 31.03787104 -14.10780795 34.01508731 -14 37 C-14.33 37 -14.66 37 -15 37 C-15.29110292 32.45969019 -15.4682147 27.92177372 -15.625 23.375 C-15.70878906 22.08980469 -15.79257813 20.80460937 -15.87890625 19.48046875 C-15.97564565 15.74632772 -15.93813011 12.61947652 -15 9 C-12.04342283 5.99104524 -8.85376894 4.59752372 -5 3 C-4.10748535 2.43716309 -3.2149707 1.87432617 -2.29541016 1.29443359 C-1.5379248 0.86727051 -0.78043945 0.44010742 0 0 Z " fill="#F0EEEA" transform="translate(243,225)"/>
<path d="M0 0 C4.99268902 1.47931526 4.99268902 1.47931526 6.375 4 C6.78019082 6.7336113 6.81866826 9.26973376 6.375 12 C4.875 14 4.875 14 3.375 15 C3.375 12 3.375 12 4.0625 9 C4.6713974 6.06859303 4.6713974 6.06859303 3.25 4.125 C0.78022151 2.6431329 -0.79113833 2.6366844 -3.625 3 C-6.01325035 4.93428786 -6.01325035 4.93428786 -5.75 8.4375 C-5.70875 9.613125 -5.6675 10.78875 -5.625 12 C-5.625 12.99 -5.625 13.98 -5.625 15 C-7.125 13.9375 -7.125 13.9375 -8.625 12 C-9.27588557 7.60652243 -9.09938867 5.69001989 -6.5625 2 C-3.625 0 -3.625 0 0 0 Z " fill="#F3EADF" transform="translate(77.625,63)"/>
<path d="M0 0 C0.33 0 0.66 0 1 0 C1.33 4.95 1.66 9.9 2 15 C6.19076078 12.70087639 6.19076078 12.70087639 10.37646484 10.39257812 C14.77777778 8 14.77777778 8 17 8 C16 11 16 11 14.41772461 12.07495117 C13.75264893 12.39439697 13.08757324 12.71384277 12.40234375 13.04296875 C11.75515381 13.36031982 11.10796387 13.6776709 10.44116211 14.00463867 C9.20184937 14.59015503 9.20184937 14.59015503 7.9375 15.1875 C5.318125 16.445625 2.69875 17.70375 0 19 C0 12.73 0 6.46 0 0 Z " fill="#F1EFE8" transform="translate(228,209)"/>
<path d="M0 0 C-2.61970793 1.53064939 -5.24501643 3.04969748 -7.875 4.5625 C-8.99455078 5.21895508 -8.99455078 5.21895508 -10.13671875 5.88867188 C-10.85214844 6.29794922 -11.56757813 6.70722656 -12.3046875 7.12890625 C-13.2944458 7.70233765 -13.2944458 7.70233765 -14.30419922 8.28735352 C-14.86381348 8.52252686 -15.42342773 8.7577002 -16 9 C-16.66 8.67 -17.32 8.34 -18 8 C-15.52356664 5.23173106 -12.79390558 3.55643026 -9.5625 1.75 C-8.61503906 1.20859375 -7.66757812 0.6671875 -6.69140625 0.109375 C-3.71372143 -1.11800162 -2.94748036 -0.91610345 0 0 Z " fill="#E7E4DA" transform="translate(268,189)"/>
<path d="M0 0 C6.97986313 0.31021614 12.07291522 3.4951958 18 7 C17.67 7.66 17.34 8.32 17 9 C10.83643195 7.3341708 5.51740344 4.12194714 0 1 C0 0.67 0 0.34 0 0 Z " fill="#E1DFD7" transform="translate(61,184)"/>
<path d="M0 0 C-2.2863012 1.36402043 -4.57821749 2.71634274 -6.875 4.0625 C-7.85146484 4.64741211 -7.85146484 4.64741211 -8.84765625 5.24414062 C-10.53065725 6.22444533 -12.26296199 7.11898432 -14 8 C-14.66 7.67 -15.32 7.34 -16 7 C-13.74955401 4.55542608 -11.44198707 2.90097066 -8.5625 1.25 C-7.41974609 0.57710937 -7.41974609 0.57710937 -6.25390625 -0.109375 C-3.66585264 -1.13203743 -2.56366999 -0.95772637 0 0 Z " fill="#E5E3DB" transform="translate(260,219)"/>
<path d="M0 0 C0.99 0.66 1.98 1.32 3 2 C-2.445 4.475 -2.445 4.475 -8 7 C-8.66 6.34 -9.32 5.68 -10 5 C-6.7 3.35 -3.4 1.7 0 0 Z " fill="#E7E4D9" transform="translate(231,198)"/>
<path d="M0 0 C0.99 0.495 0.99 0.495 2 1 C2 1.66 2 2.32 2 3 C2.9075 3.268125 3.815 3.53625 4.75 3.8125 C7.71471963 4.89576294 9.6169754 5.98359457 12 8 C6.77848267 7.59046923 3.70045754 6.81259261 0 3 C0 2.01 0 1.02 0 0 Z " fill="#DDDBD3" transform="translate(74,170)"/>
<path d="M0 0 C-1 3 -1 3 -3.9375 4.6875 C-7 6 -7 6 -9 6 C-9 5.34 -9 4.68 -9 4 C-2.25 0 -2.25 0 0 0 Z " fill="#F0ECDF" transform="translate(267,205)"/>
<path d="M0 0 C4.40114397 0.50298788 6.71195019 2.08772731 10 5 C6.28111761 4.49287967 3.26545761 3.88391785 0 2 C0 1.34 0 0.68 0 0 Z " fill="#EEECE1" transform="translate(78,192)"/>
<path d="M0 0 C6.52307692 0.61538462 6.52307692 0.61538462 8.9375 2.5625 C9.288125 3.036875 9.63875 3.51125 10 4 C9.01 4.495 9.01 4.495 8 5 C6.0546875 4.22265625 6.0546875 4.22265625 3.875 3.0625 C3.15054688 2.68222656 2.42609375 2.30195313 1.6796875 1.91015625 C1.12539062 1.60980469 0.57109375 1.30945313 0 1 C0 0.67 0 0.34 0 0 Z " fill="#E6E3DB" transform="translate(131,222)"/>
<path d="M0 0 C3.82097239 0.53069061 6.06171403 1.49701566 9 4 C2.25 3.125 2.25 3.125 0 2 C0 1.34 0 0.68 0 0 Z " fill="#DFDCD2" transform="translate(99,186)"/>
<path d="M0 0 C0.66 0.99 1.32 1.98 2 3 C0.02 3.99 -1.96 4.98 -4 6 C-4.66 5.34 -5.32 4.68 -6 4 C-4.02 2.68 -2.04 1.36 0 0 Z " fill="#D8D4C5" transform="translate(319,183)"/>
<path d="M0 0 C-0.33 0.99 -0.66 1.98 -1 3 C-4.0625 4.1875 -4.0625 4.1875 -7 5 C-6 2 -6 2 -4.0625 0.8125 C-2 0 -2 0 0 0 Z " fill="#EFECDE" transform="translate(289,193)"/>
<path d="M0 0 C0.763125 0.61875 1.52625 1.2375 2.3125 1.875 C4.99625809 4.05597052 4.99625809 4.05597052 8 6 C5.69 5.67 3.38 5.34 1 5 C0.67 3.35 0.34 1.7 0 0 Z " fill="#E3E1D7" transform="translate(49,182)"/>
</svg>
